<svg aria-hidden="true" style="position:absolute;width:0;height:0;overflow:hidden" xmlns="http://www.w3.org/2000/svg"><defs><symbol id="icon-icon-send" viewBox="0 0 32 32"><path fill="#fff" style="fill:var(--color1, #fff)" d="M32 0 0 18l10.227 3.788L26 7 14.002 23.186l.01.004-.012-.004V32l5.735-6.691L27 28l5-28z"/></symbol><symbol id="icon-mark" viewBox="0 0 32 32"><path d="M28.444 4.333v23.333H3.555V4.333h24.889zm0-3.333H3.555C1.599 1-.001 2.5-.001 4.333v23.333c0 1.833 1.6 3.333 3.556 3.333h24.889c1.956 0 3.556-1.5 3.556-3.333V4.333C32 2.5 30.4 1 28.444 1z"/></symbol><symbol id="icon-person" viewBox="0 0 32 32"><path d="M16 16c4.42 0 8-3.58 8-8s-3.58-8-8-8-8 3.58-8 8 3.58 8 8 8zm0 4c-5.34 0-16 2.68-16 8v2c0 1.1.9 2 2 2h28c1.1 0 2-.9 2-2v-2c0-5.32-10.66-8-16-8z"/></symbol><symbol id="icon-phone" viewBox="0 0 32 32"><path d="m27.419 20.852-4.201-.48a3.293 3.293 0 0 0-2.713.943l-3.044 3.044A24.888 24.888 0 0 1 6.56 13.458l3.06-3.06a3.293 3.293 0 0 0 .943-2.713l-.48-4.168A3.31 3.31 0 0 0 6.791.589H3.929C2.06.589.505 2.144.621 4.013c.877 14.126 12.174 25.407 26.284 26.284 1.869.116 3.424-1.439 3.424-3.308v-2.861c.016-1.671-1.241-3.077-2.911-3.275z"/></symbol><symbol id="icon-email" viewBox="0 0 32 32"><path d="M28 4H4a2.996 2.996 0 0 0-2.985 3L1 25c0 1.65 1.35 3 3 3h24c1.65 0 3-1.35 3-3V7c0-1.65-1.35-3-3-3zm-.6 6.375-10.605 6.63c-.48.3-1.11.3-1.59 0L4.6 10.375c-.375-.24-.6-.645-.6-1.08C4 8.29 5.095 7.69 5.95 8.215L16 14.5l10.05-6.285c.855-.525 1.95.075 1.95 1.08 0 .435-.225.84-.6 1.08z"/></symbol><symbol id="icon-close" viewBox="0 0 32 32"><path d="m26.667 7.303-1.97-1.97-7.808 7.808-7.808-7.808-1.97 1.97 7.808 7.808-7.808 7.808 1.97 1.97 7.808-7.808 7.808 7.808 1.97-1.97-7.808-7.808 7.808-7.808z"/></symbol><symbol id="icon-icon-mail" viewBox="0 0 32 32"><path d="M26.667 5.333H5.334A2.663 2.663 0 0 0 2.681 8l-.013 16c0 1.467 1.2 2.667 2.667 2.667h21.333c1.467 0 2.667-1.2 2.667-2.667V8c0-1.467-1.2-2.667-2.667-2.667zM26.133 11l-9.427 5.893a1.346 1.346 0 0 1-1.413 0L5.866 11a1.132 1.132 0 1 1 1.2-1.92l8.933 5.587 8.933-5.587a1.132 1.132 0 1 1 1.2 1.92z"/></symbol><symbol id="icon-icon-name" viewBox="0 0 32 32"><path d="M16 16c2.947 0 5.333-2.387 5.333-5.333S18.946 5.334 16 5.334c-2.947 0-5.333 2.387-5.333 5.333S13.054 16 16 16zm0 2.667c-3.56 0-10.667 1.787-10.667 5.333v1.333c0 .733.6 1.333 1.333 1.333h18.667c.733 0 1.333-.6 1.333-1.333V24c0-3.547-7.107-5.333-10.667-5.333z"/></symbol><symbol id="icon-icon-phone" viewBox="0 0 32 32"><path d="m24.882 19.773-3.268-.373a2.561 2.561 0 0 0-2.11.733L17.137 22.5a19.357 19.357 0 0 1-8.478-8.478l2.38-2.38a2.561 2.561 0 0 0 .733-2.11l-.373-3.242a2.575 2.575 0 0 0-2.56-2.277H6.613c-1.454 0-2.663 1.209-2.573 2.663.682 10.987 9.469 19.761 20.443 20.443 1.454.09 2.663-1.119 2.663-2.573V22.32a2.549 2.549 0 0 0-2.264-2.547z"/></symbol><symbol id="icon-icon_check" viewBox="0 0 32 32"><path fill="#fff" style="fill:var(--color1, #fff);stroke:var(--color1, #fff)" stroke="#fff" stroke-width=".4" d="m7.914 16.503-.138-.131-2.067 1.958 7.282 6.947 15.298-14.594-2.053-1.959-13.245 12.623-5.077-4.844z"/></symbol><symbol id="icon-icon_send" viewBox="0 0 32 32"><path fill="#fff" style="fill:var(--color1, #fff)" d="M32 0 0 18l10.227 3.788L26 7 14.002 23.186l.01.004-.012-.004V32l5.735-6.691L27 28l5-28z"/></symbol><symbol id="icon-client1" viewBox="0 0 32 32"><path d="m5.34 0 4.677 4.428h13.046v12.351l4.677 4.428V.001H5.34z"/><path d="M1.5 4.241v20.6h21.76v-8.188L10.155 4.246 1.5 4.241zm17.615 17.587H4.943V7.973h1.002V20.89h13.17v.938zM7.766 28.662l.524-1.078h.438l-.764 1.437v.838h-.397v-.838l-.764-1.437h.439l.524 1.078zm2.247.667h-.881l-.184.53h-.411l.859-2.275h.355l.861 2.275h-.413l-.186-.53zm-.77-.319h.659l-.33-.944-.33.944zm2.328.234c0-.105.029-.202.086-.289.058-.089.17-.193.339-.314a1.498 1.498 0 0 1-.182-.276l-.004-.008a.568.568 0 0 1-.052-.226c0-.179.054-.319.163-.422s.254-.156.437-.156c.166 0 .301.049.406.147s.16.218.16.361v.003a.497.497 0 0 1-.074.262l.001-.002a.858.858 0 0 1-.233.236l-.003.002-.155.113.44.518a.914.914 0 0 0 .095-.417h.33c0 .28-.065.509-.196.689l.334.396h-.44l-.128-.152a.93.93 0 0 1-.558.183h-.025.001c-.225 0-.405-.06-.54-.179a.597.597 0 0 1-.202-.447v-.021.001zm.753.343a.58.58 0 0 0 .359-.128l-.497-.586-.049.035c-.125.095-.188.203-.188.325 0 .105.034.191.102.256a.375.375 0 0 0 .254.099h.019-.001zm-.21-1.466c0 .088.054.197.161.33l.173-.118.049-.039a.283.283 0 0 0 .097-.212v-.011a.2.2 0 0 0-.067-.149.233.233 0 0 0-.162-.064h-.019a.224.224 0 0 0-.167.075.276.276 0 0 0-.066.179v.01zm4.134.997c-.023.243-.113.432-.269.568s-.364.204-.623.204a.902.902 0 0 1-.48-.128.86.86 0 0 1-.317-.362l-.002-.005a1.302 1.302 0 0 1-.117-.544v-.22c0-.214.038-.403.114-.567s.186-.29.326-.378a.913.913 0 0 1 .494-.133c.251 0 .453.068.606.205s.243.329.268.578h-.394c-.019-.163-.067-.281-.144-.353s-.188-.109-.336-.109a.464.464 0 0 0-.397.189c-.092.125-.138.309-.141.552v.202c0 .246.044.433.132.563s.218.194.387.194c.155 0 .272-.035.35-.105s.128-.186.148-.348h.394zm2.17-.338c0 .223-.038.419-.115.588a.88.88 0 0 1-.332.388.905.905 0 0 1-.494.134.92.92 0 0 1-.493-.134.897.897 0 0 1-.332-.38l-.002-.006a1.335 1.335 0 0 1-.119-.555v-.023.001-.128c0-.222.038-.418.117-.588s.19-.3.333-.389c.144-.091.308-.136.493-.136s.35.045.493.134c.143.089.255.217.333.384s.118.362.118.584v.126zm-.396-.118c0-.252-.048-.445-.143-.58a.465.465 0 0 0-.384-.202l-.022.001h.001-.016a.468.468 0 0 0-.384.2l-.001.002c-.096.133-.145.323-.147.567v.131c0 .25.049.444.146.58s.233.205.406.205c.175 0 .31-.067.403-.2.095-.133.142-.328.142-.584v-.118z"/></symbol><symbol id="icon-client2" viewBox="0 0 32 32"><path d="M13.947 1.806h.084c.156 0 .324.015.49.03a13.96 13.96 0 0 1 2.18.329V.403a12.432 12.432 0 0 0-2.207-.357l-.042-.002c-.254-.02-.571-.035-.889-.043h-.284c-1.523.006-3.04.201-4.514.582a18.266 18.266 0 0 0-4.79 1.948v17.475a18.922 18.922 0 0 1 4.431-1.75l.135-.029c1.123-.3 2.433-.51 3.78-.586l.052-.002h.052c.217-.011.433-.017.655-.018V15.83c-1.78.024-3.493.264-5.129.695l.147-.033c-.603.157-1.185.326-1.731.513l-.623.212V3.591l.266-.128c1.89-.918 4.096-1.513 6.425-1.649l.047-.002.028-.001.029.001h-.001c.248-.012.497-.018.742-.018h.28c.129.003.258.006.388.014z"/><path d="M18.337 3.651h-.016c-.915 0-1.811-.077-2.684-.225l.094.013c-.277-.047-.55-.103-.814-.164V20.55c1.12.277 2.271.412 3.425.404a18.446 18.446 0 0 0 4.644-.61l-.128.029a18.299 18.299 0 0 0 4.877-1.995l-.085.047V1.262a19.021 19.021 0 0 1-4.429 1.751l-.136.03a19.345 19.345 0 0 1-4.746.609zm6.908.299.623-.209v13.63l-.266.129c-.903.442-1.962.834-3.065 1.118l-.119.026a16.52 16.52 0 0 1-4.074.527c-.411 0-.818-.017-1.214-.052l-.426-.038V5.064l.497.033c.361.023.735.034 1.141.034a21.134 21.134 0 0 0 5.32-.696l-.147.033a28.128 28.128 0 0 0 1.731-.518zM5.184 25.977a.916.916 0 0 0-.661-.281l-.034.001h.002-.014c-.139 0-.272.028-.393.078l.007-.003a.904.904 0 0 0-.51.512l-.002.006a1.001 1.001 0 0 0-.071.386v2.335c-.006.164.026.328.092.479.055.12.135.226.234.313a.824.824 0 0 0 .32.166c.114.031.231.048.349.048a.985.985 0 0 0 .968-.982v-.261H4.86v.222c0 .07-.013.136-.037.198l.001-.004a.38.38 0 0 1-.089.132.426.426 0 0 1-.255.089.308.308 0 0 1-.286-.125l-.001-.001a.548.548 0 0 1-.082-.289l.001-.024v.001-2.177a.74.74 0 0 1 .075-.349.31.31 0 0 1 .262-.143l.038.002h-.001.012c.107 0 .201.052.26.131l.001.001a.493.493 0 0 1 .101.3v.014-.001.202h.604v-.249c0-.143-.027-.28-.077-.405l.003.007a.955.955 0 0 0-.205-.329zm3.626-.026a1.051 1.051 0 0 0-1.058-.191.965.965 0 0 0-.557.511l-.002.006a1.08 1.08 0 0 0-.089.452v2.239c-.004.158.026.314.089.458a.89.89 0 0 0 .237.313.964.964 0 0 0 .322.197 1.049 1.049 0 0 0 1.059-.198l-.001.001a.948.948 0 0 0 .23-.313c.063-.144.093-.301.089-.458v-2.26c0-.156-.033-.304-.092-.438l.003.007a1.016 1.016 0 0 0-.23-.327zm-.285 3.018.002.035a.398.398 0 0 1-.123.289.446.446 0 0 1-.575 0l.001.001a.398.398 0 0 1-.121-.326v.002-2.239l-.001-.034a.4.4 0 0 1 .123-.289.446.446 0 0 1 .575 0l-.001-.001a.398.398 0 0 1 .121.326v-.002 2.24zm5.047 1v-4.24h-.586l-.771 2.244h-.01l-.777-2.244h-.58v4.239h.606V27.39h.011l.593 1.823h.302l.598-1.823h.01v2.578h.606zm3.441-3.942a.834.834 0 0 0-.342-.232 1.31 1.31 0 0 0-.416-.066h-.923v4.24h.604v-1.656h.311c.189.009.376-.031.545-.116a.88.88 0 0 0 .329-.32l.002-.004a1 1 0 0 0 .138-.369c.021-.133.033-.287.033-.444v-.04.002a2.426 2.426 0 0 0-.059-.606.906.906 0 0 0-.223-.39zm-.312 1.292a.538.538 0 0 1-.057.224l.001-.003a.342.342 0 0 1-.154.147l-.002.001a.617.617 0 0 1-.254.054l-.033-.001h-.274V26.3h.311l.029-.001c.088 0 .172.02.247.055l-.004-.002a.35.35 0 0 1 .141.154l.001.002a.62.62 0 0 1 .053.236v.282c0 .098.006.201 0 .291H16.7zm3.173-1.59h-.495l-.934 4.24h.604l.177-.911h.823l.178.911h.604l-.957-4.24zm-.557 2.752.297-1.537h.011l.295 1.537h-.604zm4.46-.198h-.011l-.913-2.554h-.58v4.24h.604v-2.55h.012l.923 2.549h.568v-4.239h-.604v2.554zm3.691-2.554-.486 1.686h-.012l-.486-1.686h-.639l.83 2.448v1.791h.604v-1.791l.83-2.447h-.64zM3.5 31.166h.291v.817h.198v-.817h.289v-.167H3.5v.168zm2.447-.168-.382.985h.21l.081-.224h.392l.084.224h.215l-.391-.985h-.21zm-.03.595.134-.365.134.365h-.268zm2.449.027h.228v.127a.378.378 0 0 1-.234.083h-.014a.25.25 0 0 1-.195-.094.406.406 0 0 1-.073-.234l.001-.023v.001c0-.219.095-.329.283-.329l.021-.001c.097 0 .178.067.201.157v.001l.194-.038c-.042-.192-.18-.289-.417-.289h-.013a.492.492 0 0 0-.331.127.48.48 0 0 0-.141.38v-.002.023c0 .132.048.254.127.347l-.001-.001c.087.09.209.146.343.146L8.377 32h-.001.016c.155 0 .296-.06.402-.157v-.388h-.426v.166zm2.471-.622h-.199v.985h.689v-.167h-.49v-.817zm2.089 0h-.199v.985h.199v-.985zm2.043.657-.404-.657h-.193v.985h.185v-.643l.396.643h.198v-.985h-.182v.658zm1.846-.106h.49v-.167h-.49v-.215h.527v-.168h-.727v.985h.747v-.167h-.548v-.266zm4.477-.163h-.388v-.388h-.198v.984h.198v-.431h.388v.431h.198v-.985h-.198v.388zm1.857.163h.492v-.167h-.492v-.215h.529v-.168h-.726v.985h.746v-.167h-.548v-.266zm2.519.001c.172-.027.258-.118.258-.274a.23.23 0 0 0-.096-.219h-.001a.555.555 0 0 0-.25-.059l-.04.001h-.415v.984h.198v-.412h.055c.039 0 .076.008.109.023l-.002-.001a.201.201 0 0 1 .07.072l.215.313h.236l-.12-.192a.704.704 0 0 0-.215-.235l-.002-.002zm-.199-.137h-.146v-.247h.156a.515.515 0 0 1 .205.024l-.004-.001a.13.13 0 0 1-.009.2.537.537 0 0 1-.164.025l-.039-.001h.002zm2.099.136h.49v-.167h-.49v-.215h.529v-.168h-.728v.985h.747v-.167h-.548v-.266z"/></symbol><symbol id="icon-client3" viewBox="0 0 32 32"><path d="M5.222 31.103c.023.001.044.01.06.025l.153.161c-.119.13-.266.234-.431.304a1.533 1.533 0 0 1-.61.109h-.031a1.5 1.5 0 0 1-.554-.106l.01.004a1.25 1.25 0 0 1-.709-.725l-.003-.009a1.591 1.591 0 0 1-.097-.55v-.022.001-.023c0-.198.038-.387.108-.56l-.004.01a1.318 1.318 0 0 1 .757-.734c.188-.07.389-.104.591-.102a1.47 1.47 0 0 1 .55.093c.151.063.29.149.412.257l-.129.171a.134.134 0 0 1-.032.031.077.077 0 0 1-.045.014h-.006a.107.107 0 0 1-.056-.019l-.068-.045-.096-.059a1.024 1.024 0 0 0-.296-.101l-.006-.001a1.233 1.233 0 0 0-.209-.018h-.02.001-.016c-.147 0-.288.028-.417.079l.008-.003a.964.964 0 0 0-.333.216 1.002 1.002 0 0 0-.216.342 1.248 1.248 0 0 0-.079.452c-.002.156.025.313.079.46.046.126.119.242.212.341a.863.863 0 0 0 .318.212c.125.049.259.074.394.073.078.001.156-.004.234-.015a.879.879 0 0 0 .505-.235.115.115 0 0 1 .072-.03zm4.422-.807c.002.194-.033.387-.103.568a1.246 1.246 0 0 1-.288.44 1.314 1.314 0 0 1-.444.286l-.009.003a1.695 1.695 0 0 1-1.176-.004l.012.004a1.331 1.331 0 0 1-.45-.29 1.3 1.3 0 0 1-.288-.436l-.003-.009a1.614 1.614 0 0 1 .004-1.147l-.004.011a1.34 1.34 0 0 1 .29-.447 1.32 1.32 0 0 1 .441-.276l.009-.003A1.674 1.674 0 0 1 8.811 29l-.012-.004a1.29 1.29 0 0 1 .741.729c.071.182.106.376.104.571zm-.402 0v-.024c0-.155-.027-.303-.076-.441l.003.009a.907.907 0 0 0-.522-.554l-.006-.002a1.219 1.219 0 0 0-.855.003l.009-.003a.903.903 0 0 0-.528.55l-.002.006a1.465 1.465 0 0 0 0 .912.899.899 0 0 0 .524.552l.006.002c.273.097.573.097.846 0a.903.903 0 0 0 .324-.214.972.972 0 0 0 .205-.341 1.29 1.29 0 0 0 .073-.456zm3.418.478.041.102c.015-.036.028-.069.044-.102.017-.04.034-.073.052-.105l-.002.005.978-1.694c.019-.03.037-.048.056-.053a.234.234 0 0 1 .066-.009h.303v2.755h-.342v-2.11l-.001-.048.001-.05v.002l-.984 1.718a.149.149 0 0 1-.057.062h-.001a.16.16 0 0 1-.082.022h-.057a.151.151 0 0 1-.141-.084v-.001l-1.013-1.73v2.212h-.331v-2.75h.303a.22.22 0 0 1 .068.01h-.002a.107.107 0 0 1 .053.052v.001l.999 1.696c.018.028.035.06.048.094l.001.004zm3.681-.136v1.031h-.383v-2.75h.887c.158 0 .311.022.455.063l-.012-.003a.927.927 0 0 1 .337.171c.085.074.15.167.191.27a.925.925 0 0 1 .066.352.84.84 0 0 1-.071.352.772.772 0 0 1-.205.274l-.001.001a.953.953 0 0 1-.333.181l-.007.002a1.498 1.498 0 0 1-.461.064l-.463-.007zm0-.296h.464c.1.002.201-.013.296-.042a.627.627 0 0 0 .215-.12l-.001.001c.056-.049.1-.11.129-.178l.001-.003a.565.565 0 0 0 .046-.225v-.008l.001-.028a.506.506 0 0 0-.041-.199l.001.003a.544.544 0 0 0-.133-.188.763.763 0 0 0-.517-.148h-.461v1.134zm5.146 1.331h-.308a.134.134 0 0 1-.079-.026.168.168 0 0 1-.049-.063v-.001l-.26-.665h-1.307l-.27.665a.152.152 0 0 1-.047.061.135.135 0 0 1-.082.028h-.307l1.148-2.756h.398l1.164 2.756zm-1.895-1.023h1.079l-.455-1.122a1.845 1.845 0 0 1-.083-.245l-.003-.013-.044.144a1.282 1.282 0 0 1-.045.126l.003-.009-.452 1.119zm3.548-1.72c.023.013.043.03.058.05l1.674 2.076v-2.139h.342v2.756h-.196a.164.164 0 0 1-.074-.017h.001a.233.233 0 0 1-.061-.051L23.21 29.53a.753.753 0 0 1 0 .095v2.049h-.342v-2.756h.203c.024 0 .047.004.068.013zm4.897 1.647v1.094h-.383v-1.094l-1.058-1.66H26.946c.028 0 .054.009.075.024a.251.251 0 0 1 .052.061l.001.001.662 1.07a1.363 1.363 0 0 1 .116.244l.05-.118a.93.93 0 0 1 .068-.13l-.002.004.653-1.078a.284.284 0 0 1 .05-.059.117.117 0 0 1 .076-.027h.352l-1.06 1.667zm-15.566-6.284c.167.02.335.037.506.051 2.582-1.101 4.767-2.902 6.281-5.18s2.29-4.93 2.231-7.625l-2.846-2.712c.189.894.297 1.921.297 2.974 0 2.015-.396 3.937-1.115 5.694l.036-.1c-1.09 2.731-2.957 5.12-5.39 6.899z"/><path d="m11.454 24.167.077.015c2.6-1.773 4.583-4.247 5.692-7.104.627-1.564.991-3.378.991-5.276 0-1.296-.17-2.553-.488-3.748l.023.101-4.054-3.862c1.269 2.397 2.015 5.239 2.015 8.255 0 .701-.04 1.393-.119 2.074l.008-.083c-.397 3.519-1.834 6.857-4.144 9.628zm13.75-9.443c-.688 2.962-2.361 5.632-4.77 7.616a14.98 14.98 0 0 1-2.191 1.51l-.075.039a13.579 13.579 0 0 0 5.285-2.851l-.016.013a12.774 12.774 0 0 0 3.381-4.679l.031-.084-1.645-1.565z"/><path d="m24.56 14.288-2.341-2.23a13.684 13.684 0 0 1-2.23 7.249l.032-.053c-1.394 2.169-3.373 3.943-5.729 5.137h.012c.525 0 1.049-.03 1.572-.089a14.47 14.47 0 0 0 5.649-3.95l.014-.017a13.397 13.397 0 0 0 3.005-5.958l.016-.089zM11.794 2.664 9.001 0c-2.497.919-4.644 2.535-6.16 4.636S.508 9.225.501 11.775c.01 2.818 1.005 5.552 2.829 7.77s4.372 3.793 7.242 4.476c2.562-2.973 4.061-6.647 4.281-10.488s-.851-7.648-3.059-10.87zm19.218 11.214c-.01-3.343-1.409-6.547-3.89-8.91s-5.843-3.696-9.352-3.706a13.67 13.67 0 0 0-4.741.841l17.099 16.29c.559-1.335.884-2.886.884-4.513v-.001z"/></symbol><symbol id="icon-client4" viewBox="0 0 32 32"><path d="M4.922 12.559h-.001c-.898 0-1.626.71-1.626 1.585v.001c0 .875.728 1.585 1.626 1.585h.001c.898 0 1.626-.71 1.626-1.585v-.001c0-.875-.728-1.584-1.626-1.584zm12.001-.506a4.54 4.54 0 0 0-1.381-3.24 4.778 4.778 0 0 0-6.649 0 4.533 4.533 0 0 0-1.381 3.241v6.702s9.411-1.021 9.412-6.701v-.001zM0 20.954a3.15 3.15 0 0 0 .961 2.254l.001.001a3.317 3.317 0 0 0 4.626 0l-.001.001a3.15 3.15 0 0 0 .962-2.253v-4.665s-6.548.712-6.548 4.663zm3.275.835h-.002a.867.867 0 0 1-.478-.142l.003.002a.849.849 0 0 1-.314-.37l-.002-.005a.804.804 0 0 1-.047-.487l-.001.005a.837.837 0 0 1 .235-.428.861.861 0 0 1 .434-.228l.005-.001a.872.872 0 0 1 .88.355.81.81 0 0 1 .078.79l.002-.005a.833.833 0 0 1-.464.455.85.85 0 0 1-.329.064h-.001v-.003zm6.683-.518h-.67v.692h-.349v-1.692h1.102v.283h-.753v.437h.669v.282zm1.677-.116c0 .167-.03.313-.089.438a.668.668 0 0 1-.618.393h-.013.001a.676.676 0 0 1-.629-.385l-.002-.004a.982.982 0 0 1-.092-.418v-.015.001-.084c0-.167.03-.314.09-.44s.145-.224.254-.292c.11-.068.236-.102.377-.102s.266.034.375.102c.11.068.195.165.254.292s.091.273.091.438v.075zm-.353-.077c0-.178-.032-.313-.095-.405a.312.312 0 0 0-.259-.139l-.014.001h.001-.013a.308.308 0 0 0-.257.137l-.001.001c-.063.091-.096.224-.097.399v.083c0 .173.032.307.095.403s.155.143.275.143l.014.001c.107 0 .2-.054.255-.136l.001-.001c.063-.092.094-.226.095-.403v-.083zm1.484.441v-.01a.174.174 0 0 0-.07-.141l-.001-.001a.878.878 0 0 0-.251-.112 1.851 1.851 0 0 1-.298-.121l.01.005c-.192-.104-.289-.244-.289-.42 0-.091.026-.173.077-.244s.126-.128.222-.169c.097-.04.205-.06.325-.06s.229.022.323.066a.509.509 0 0 1 .22.185c.053.08.079.171.079.273h-.349c0-.078-.024-.138-.073-.18a.296.296 0 0 0-.206-.066.313.313 0 0 0-.198.055.167.167 0 0 0-.071.138v.004c0 .055.028.101.083.138a.978.978 0 0 0 .246.105c.198.06.343.134.434.222s.136.198.136.33c0 .147-.055.262-.166.345s-.26.125-.447.125a.877.877 0 0 1-.356-.071.574.574 0 0 1-.244-.195l-.001-.002a.496.496 0 0 1-.084-.278v-.01.001h.35c0 .187.112.28.335.28a.335.335 0 0 0 .195-.05.166.166 0 0 0 .07-.135v-.007.001zm1.861-.966h-.518v1.41h-.349v-1.41h-.511v-.283h1.379v.283zm1.219.676h-.67v.453h.786v.28h-1.135V20.27h1.133v.283h-.784v.403h.67v.274zm.948.114h-.278v.62h-.349v-1.692h.629c.199 0 .354.044.463.134s.163.215.163.378a.536.536 0 0 1-.075.29.507.507 0 0 1-.223.182l-.003.001.366.692v.016h-.375l-.317-.62zm-.278-.282h.282a.29.29 0 0 0 .203-.066.24.24 0 0 0 .073-.172l-.001-.013v.001a.251.251 0 0 0-.069-.188c-.045-.046-.114-.069-.208-.069h-.281v.508zm2.114.305v.597h-.349v-1.692h.661c.127 0 .238.023.335.07a.52.52 0 0 1 .301.49.487.487 0 0 1-.171.393c-.113.095-.27.143-.471.143h-.306zm0-.282h.311c.092 0 .162-.022.21-.066.049-.043.074-.105.074-.186l.001-.012a.276.276 0 0 0-.074-.189.276.276 0 0 0-.203-.079h-.319v.532zm2.207.145h-.669v.453h.786v.28h-1.135V20.27h1.133v.283h-.783v.403h.669v.274zm1.618-.676h-.518v1.41h-.349v-1.41h-.511v-.283h1.379v.283zm1.219.676h-.669v.453h.786v.28h-1.135V20.27h1.133v.283h-.784v.403h.67v.274zm.948.114h-.278v.62h-.349v-1.692h.629c.2 0 .355.044.463.134s.163.215.163.378a.528.528 0 0 1-.075.29.514.514 0 0 1-.223.182l-.003.001.366.692v.016h-.374l-.317-.62zm-.278-.282h.282a.29.29 0 0 0 .203-.066.24.24 0 0 0 .072-.172l-.001-.014v.001c0-.08-.022-.143-.068-.188s-.114-.069-.209-.069h-.28v.508zm2.05.458v-.01a.174.174 0 0 0-.07-.141l-.001-.001a.878.878 0 0 0-.251-.112 1.851 1.851 0 0 1-.298-.121l.01.005c-.192-.104-.289-.244-.289-.42 0-.091.026-.173.077-.244s.126-.128.222-.169c.097-.04.205-.06.325-.06s.229.022.323.066a.515.515 0 0 1 .22.185c.053.08.079.171.079.273h-.349c0-.078-.024-.138-.073-.18a.296.296 0 0 0-.206-.066.318.318 0 0 0-.199.055.17.17 0 0 0-.071.138v.004c0 .055.028.101.083.138a.985.985 0 0 0 .245.105c.198.06.343.134.434.222s.136.198.136.33c0 .147-.055.262-.166.345s-.26.125-.447.125a.877.877 0 0 1-.356-.071.58.58 0 0 1-.244-.195l-.001-.002a.496.496 0 0 1-.084-.278v-.01.001h.35c0 .187.112.28.335.28a.335.335 0 0 0 .195-.05.165.165 0 0 0 .069-.135v-.007.001z"/></symbol><symbol id="icon-client5" viewBox="0 0 32 32"><path d="M2.445 24.594a.85.85 0 0 1 .189.55.873.873 0 0 1-.291.694l-.001.001a1.264 1.264 0 0 1-.849.254H.001v-3.489h1.462c.025-.002.054-.002.082-.002.273 0 .526.088.731.238l-.003-.002a.797.797 0 0 1 .282.654v-.002a.811.811 0 0 1-.17.534.796.796 0 0 1-.445.272.85.85 0 0 1 .504.298zm-1.751-.527h.624a.588.588 0 0 0 .398-.116.415.415 0 0 0 .135-.306l-.002-.036v.002l.001-.03a.426.426 0 0 0-.134-.311.603.603 0 0 0-.411-.118H.694v.915zm1.084 1.338a.435.435 0 0 0 .149-.326l-.001-.029v.002a.441.441 0 0 0-.15-.359l-.001-.001a.641.641 0 0 0-.427-.125H.695v.959h.663a.651.651 0 0 0 .419-.121zm3.654.689-.813-1.363h-.306v1.363h-.699v-3.489h1.323a1.3 1.3 0 0 1 .925.299l-.002-.002a1.114 1.114 0 0 1 .096 1.446l.002-.003a1.063 1.063 0 0 1-.631.354l.866 1.394h-.76zm-1.118-1.84h.572c.398 0 .596-.176.596-.528l.001-.03a.516.516 0 0 0-.147-.362.611.611 0 0 0-.453-.142h-.577l.007 1.062zm4.94 1.137H7.86l-.246.702h-.733l1.28-3.45h.793l1.274 3.45h-.733l-.241-.702zm-.186-.528-.51-1.472-.51 1.472h1.018zm4.972 1.231h-.695l-1.557-2.372v2.372h-.692v-3.489h.692l1.557 2.386v-2.386h.694v3.489zm3.962-.836c-.146.264-.36.474-.62.611l-.008.004a2.03 2.03 0 0 1-.976.219h-1.237v-3.489h1.237l.054-.001c.336 0 .654.08.934.222l-.012-.006c.266.134.485.346.629.609a2.028 2.028 0 0 1-.004 1.841l.006-.011zm-.795-.083c.191-.222.307-.514.307-.833s-.116-.61-.309-.834l.002.002a1.198 1.198 0 0 0-.872-.297h-.479v2.258h.482a1.197 1.197 0 0 0 .87-.298l-.002.001zM9.689 3.2s8.961 3.397 8.771 8.312v8.314s-8.954-3.398-8.767-8.314L9.689 3.2zm16.753 14.679a12.107 12.107 0 0 1 5.639-2.102l.054-.005V13.17a11.769 11.769 0 0 0-5.665 4.662l-.028.048z"/><path d="M25.426 18.663c1.399-2.79 3.754-4.926 6.626-6.01l.084-.028V5.127S19.374 9.965 19.644 16.965v11.837s.569-.216 1.463-.622c0-.378 0-.76.04-1.144a12.31 12.31 0 0 1 4.262-8.358l.017-.014z"/><path d="M24.213 23.06c.067-.821.216-1.633.446-2.424a11.397 11.397 0 0 0-2.702 7.137v.013c1.039-.5 1.843-.933 2.629-1.393l-.174.094a11.935 11.935 0 0 1-.24-2.417c0-.356.015-.708.045-1.056l-.003.046zm.507.042a11.838 11.838 0 0 0 .17 3.177l-.012-.074c3.486-2.095 7.404-5.331 7.254-9.242v-.341c-2.597.3-4.886 1.43-6.638 3.115l.004-.004a11.348 11.348 0 0 0-.774 3.326l-.002.042z"/></symbol><symbol id="icon-client6" viewBox="0 0 32 32"><path d="M16.063 15.409a1.157 1.157 0 0 1-.204-.741v.004-1.07c0-.329.068-.578.203-.748s.369-.255.7-.255c.311 0 .532.073.662.218a.944.944 0 0 1 .196.641v.251h-.556v-.255l.001-.033c0-.076-.006-.151-.018-.225l.001.008a.253.253 0 0 0-.079-.148.294.294 0 0 0-.178-.058l-.025.001h.001l-.023-.001a.317.317 0 0 0-.189.062l.001-.001a.3.3 0 0 0-.092.162l-.001.002a1.381 1.381 0 0 0-.022.265v1.3a.71.71 0 0 0 .073.369l-.002-.004a.267.267 0 0 0 .109.088l.002.001a.28.28 0 0 0 .11.023l.035-.002h-.002a.284.284 0 0 0 .197-.059l-.001.001a.277.277 0 0 0 .083-.156v-.002c.013-.086.019-.173.018-.26v-.264h.556v.241c.002.02.002.043.002.066 0 .228-.073.439-.197.611l.002-.003c-.127.159-.345.238-.665.238s-.562-.085-.699-.261zm2.315.011c-.14-.167-.211-.41-.211-.731v-1.127c0-.318.07-.558.211-.722s.375-.245.704-.244c.327 0 .56.082.701.244.14.164.212.404.212.722v1.127c0 .318-.072.562-.214.73s-.375.251-.699.251-.563-.085-.704-.25zm.963-.271a.687.687 0 0 0 .067-.333v-1.379l.001-.037a.662.662 0 0 0-.069-.294l.002.004a.275.275 0 0 0-.111-.089l-.002-.001a.275.275 0 0 0-.148-.019h.002a.272.272 0 0 0-.149.02l.002-.001a.278.278 0 0 0-.113.089l-.001.001a.64.64 0 0 0-.067.327v1.386a.663.663 0 0 0 .067.333.35.35 0 0 0 .115.082l.002.001a.365.365 0 0 0 .288-.001l-.003.001a.341.341 0 0 0 .117-.083v-.007zm1.322-2.52h.599l.45 2.079.46-2.079h.582l.058 3h-.43l-.046-2.085-.444 2.085h-.345l-.46-2.092-.043 2.092h-.435l.054-3zm2.821 0h.932c.537 0 .805.284.805.852 0 .544-.282.815-.848.815h-.317v1.333h-.575l.004-3zm.796 1.282a.418.418 0 0 0 .317-.094.524.524 0 0 0 .083-.339l.001-.035c0-.084-.01-.166-.029-.245l.002.007a.22.22 0 0 0-.043-.083l.001.001a.246.246 0 0 0-.072-.06l-.001-.001a.554.554 0 0 0-.226-.049l-.032.001h-.222v.896h.223zm1.771-1.282h.618l.634 3h-.536l-.125-.692h-.551l-.129.692h-.545l.634-3zm.528 1.96-.215-1.259-.215 1.259h.431zm1.236-1.96h.402l.771 1.711v-1.711h.477v3h-.383l-.776-1.787v1.787h-.494l.001-3zm2.77 1.856-.641-1.852h.54l.391 1.19.367-1.19h.528l-.633 1.852v1.144h-.553v-1.144zM16.952 16.94v.157h-.47v1.219h-.197v-1.219h-.472v-.157h1.138zm1.472 1.376h-.156a.068.068 0 0 1-.039-.013.075.075 0 0 1-.025-.031v-.001l-.136-.327h-.651l-.136.327a.085.085 0 0 1-.021.037.065.065 0 0 1-.039.013h-.156l.575-1.376h.2l.582 1.37zm-.953-.511h.543l-.23-.56a1.085 1.085 0 0 1-.041-.122l-.002-.007-.022.073-.021.057-.228.559zm1.945.376a.573.573 0 0 0 .2-.017.75.75 0 0 0 .087-.027l-.005.002.077-.034v-.31h-.233a.04.04 0 0 1-.028-.011.03.03 0 0 1-.011-.024v-.108h.446v.527a.83.83 0 0 1-.237.11l-.006.002a.853.853 0 0 1-.139.028l-.005.001c-.05.006-.107.009-.166.009h-.01a.815.815 0 0 1-.289-.053l.006.002a.686.686 0 0 1-.23-.144l.001.001a.65.65 0 0 1-.147-.214l-.002-.004a.726.726 0 0 1-.053-.276v-.009.001-.009c0-.101.019-.196.054-.284l-.002.005a.63.63 0 0 1 .378-.361.876.876 0 0 1 .309-.051c.054 0 .107.004.16.012a.745.745 0 0 1 .252.09.803.803 0 0 1 .101.072l-.056.085a.058.058 0 0 1-.019.019.048.048 0 0 1-.026.007.073.073 0 0 1-.036-.011h.001a.618.618 0 0 1-.059-.034l.003.002a.463.463 0 0 0-.074-.036l-.004-.001a.618.618 0 0 0-.102-.03l-.004-.001a.747.747 0 0 0-.138-.012h-.008.001-.007a.612.612 0 0 0-.219.04l.004-.002a.456.456 0 0 0-.276.28.696.696 0 0 0 .001.463l-.002-.005a.49.49 0 0 0 .511.309zm1.834-.022h.628v.157h-.821V16.94h.197l-.005 1.219zm1.282.157h-.197v-1.375h.197v1.376zm.732-1.369a.09.09 0 0 1 .029.025l.841 1.037-.001-.025.001-.026v.001-1.025h.171v1.381h-.099l-.007.001a.095.095 0 0 1-.037-.008h.001a.13.13 0 0 1-.031-.026l-.84-1.036v1.069h-.165V16.94h.102c.011 0 .022.002.033.007zm2.491-.007v.152h-.697v.454h.565v.146h-.565v.47h.697v.152h-.9v-1.372h.9zM5.135 8.443l8.738 2.348v8.23l-8.737-2.347V8.442zm-.56-.701v9.332l9.857 2.65v-9.332L4.575 7.741z"/><path d="M9.858 24.057 0 21.405v-9.332l9.858 2.651v9.333z"/><path d="m4.739 8.338 8.623 2.319-3.667 3.473-8.625-2.32 3.668-3.472zm-.164-.596L0 12.073l9.858 2.651 4.574-4.331-9.857-2.651zm5.838 15.79 4.02-3.806-4.02-1.082v4.888z"/></symbol><symbol id="icon-diagram" viewBox="0 0 32 32"><path fill="#2196f3" style="fill:var(--color2, #2196f3)" d="M14.926 14.965h1.066v4.798h-1.066v-4.798zm4.264 2.132h1.066v2.665H19.19v-2.665zm-8.529 1.599h1.066v1.066h-1.066v-1.066zm-3.198-.533h1.066v1.599H7.463v-1.599z"/><path fill="#212121" style="fill:var(--color3, #212121)" d="M1.599 28.291h25.586a1.6 1.6 0 0 0 1.599-1.599V24.56a1.6 1.6 0 0 0-1.599-1.599h-.533V9.667l3.028-2.868a1.608 1.608 0 1 0-.742-.752l-.004-.01-2.281 2.162v-1.23a1.6 1.6 0 0 0-1.599-1.599H3.731a1.6 1.6 0 0 0-1.599 1.599v15.992h-.533A1.6 1.6 0 0 0 0 24.56v2.132a1.6 1.6 0 0 0 1.599 1.599zM30.384 4.837a.533.533 0 0 1 0 1.066.533.533 0 0 1 0-1.066zM3.198 6.969c0-.294.239-.533.533-.533h21.323c.294 0 .533.239.533.533v2.239l-1.066 1.013V8.036a.534.534 0 0 0-.534-.534H4.798a.534.534 0 0 0-.534.533v13.327c0 .294.239.533.534.533h19.189a.534.534 0 0 0 .534-.533v-9.675l1.066-1.01V22.96H3.198V6.969zm4.798 6.93h-.005a1.6 1.6 0 1 0 1.112 2.748l1.853.93a.535.535 0 0 0 .636-.122l3.939-4.432 3.872 2.902a.534.534 0 0 0 .686-.039l3.365-3.188v8.131H5.331V8.568h18.123v2.661l-3.771 3.572-3.904-2.927a.534.534 0 0 0-.718.071v.001l-3.993 4.493-1.493-.746c.011-.064.017-.128.02-.193a1.6 1.6 0 0 0-1.599-1.599zm.533 1.599a.533.533 0 0 1-1.066 0 .533.533 0 0 1 1.066 0zm3.198 8.528h5.33v.533a.533.533 0 0 1-.533.533h-4.265a.533.533 0 0 1-.533-.533v-.533zm-10.66.534c0-.294.238-.533.533-.533h9.062v.533a1.6 1.6 0 0 0 1.599 1.599h4.265a1.6 1.6 0 0 0 1.599-1.599v-.533h9.062c.294 0 .533.239.533.533v2.132a.533.533 0 0 1-.533.533H1.601a.533.533 0 0 1-.533-.533V24.56z"/></symbol><symbol id="icon-envelope" viewBox="0 0 32 32"><path d="M28.775 4.093H2.976A2.981 2.981 0 0 0-.001 7.07v17.86a2.981 2.981 0 0 0 2.977 2.977h25.799a2.981 2.981 0 0 0 2.977-2.977V7.07a2.981 2.981 0 0 0-2.977-2.977zm0 1.985c.135 0 .264.028.381.077l-13.28 11.51-13.28-11.51a.974.974 0 0 1 .381-.077h25.799zm0 19.844H2.976a.992.992 0 0 1-.992-.992V8.251l13.241 11.476c.173.151.401.243.651.243s.478-.092.652-.244l-.002.001L29.767 8.251V24.93a.992.992 0 0 1-.992.992z"/></symbol><symbol id="icon-facebook" viewBox="0 0 32 32"><path d="M21.328 5.312h2.923V.224A36.483 36.483 0 0 0 20.143 0h-.156.008c-4.213 0-7.099 2.65-7.099 7.52V12H8.25v5.688h4.646V32h5.699V17.69h4.459l.707-5.688h-5.168V8.08c0-1.643.443-2.768 2.734-2.768z"/></symbol><symbol id="icon-instagram" viewBox="0 0 32 32"><path d="M31.969 9.408c-.075-1.7-.35-2.869-.744-3.882a7.806 7.806 0 0 0-1.851-2.838A7.867 7.867 0 0 0 26.542.844C25.523.45 24.36.175 22.66.1 20.947.019 20.403 0 16.059 0s-4.888.019-6.595.094c-1.7.075-2.869.35-3.882.744a7.803 7.803 0 0 0-2.838 1.85A7.867 7.867 0 0 0 .9 5.52C.506 6.539.231 7.702.156 9.402c-.081 1.713-.1 2.257-.1 6.601s.019 4.888.094 6.595c.075 1.7.35 2.869.744 3.882a7.895 7.895 0 0 0 1.85 2.838 7.867 7.867 0 0 0 2.832 1.844c1.019.394 2.182.669 3.882.744 1.706.075 2.25.094 6.595.094s4.888-.019 6.595-.094c1.7-.075 2.869-.35 3.882-.744a8.184 8.184 0 0 0 4.682-4.682c.394-1.019.669-2.182.744-3.882.075-1.707.094-2.251.094-6.595s-.006-4.888-.081-6.595zm-2.882 13.065c-.069 1.563-.331 2.407-.55 2.969a5.31 5.31 0 0 1-3.038 3.038c-.563.219-1.413.481-2.969.55-1.688.075-2.194.094-6.464.094s-4.782-.019-6.464-.094c-1.563-.069-2.407-.331-2.969-.55a4.926 4.926 0 0 1-1.838-1.194 4.974 4.974 0 0 1-1.194-1.838c-.219-.563-.481-1.413-.55-2.969-.075-1.688-.094-2.194-.094-6.464s.019-4.782.094-6.464c.069-1.563.331-2.407.55-2.969a4.868 4.868 0 0 1 1.2-1.838A4.974 4.974 0 0 1 6.639 3.55c.563-.219 1.413-.481 2.969-.55 1.688-.075 2.194-.094 6.464-.094 4.276 0 4.782.019 6.464.094 1.563.069 2.407.331 2.969.55a4.914 4.914 0 0 1 1.838 1.194 4.974 4.974 0 0 1 1.194 1.838c.219.563.481 1.413.55 2.969.075 1.688.094 2.194.094 6.464s-.019 4.77-.094 6.458z"/><path d="M16.059 7.783c-4.538 0-8.22 3.682-8.22 8.22s3.682 8.22 8.22 8.22 8.22-3.682 8.22-8.22-3.682-8.22-8.22-8.22zm0 13.552a5.333 5.333 0 0 1 0-10.664 5.333 5.333 0 0 1 0 10.664zM26.524 7.458a1.919 1.919 0 1 1-3.838 0 1.919 1.919 0 0 1 3.838 0z"/></symbol><symbol id="icon-linkedin" viewBox="0 0 32 32"><path d="M31.992 32H32V20.262c0-5.741-1.237-10.163-7.947-10.163-3.227 0-5.392 1.77-6.277 3.45h-.093v-2.914h-6.365v21.363h6.627V21.42c0-2.786.528-5.48 3.978-5.48 3.398 0 3.448 3.179 3.448 5.658V32h6.621zM.528 10.635h6.635V32H.528V10.635zM3.843 0A3.843 3.843 0 0 0 0 3.843c0 2.12 1.722 3.878 3.843 3.878 2.12 0 3.842-1.757 3.842-3.878S5.965.002 3.844 0z"/></symbol><symbol id="icon-smartphone" viewBox="0 0 32 32"><path d="M23 0H9C7.346 0 6 1.346 6 3v26c0 1.654 1.346 3 3 3h14c1.654 0 3-1.346 3-3V3c0-1.654-1.346-3-3-3zM9 2h14a1 1 0 0 1 1 1v21H8V3a1 1 0 0 1 1-1zm14 28H9a1 1 0 0 1-1-1v-3h16v3a1 1 0 0 1-1 1z"/><path d="M10.708 27.478a.889.889 0 0 1 .001 1.319l-.001.001a1.048 1.048 0 0 1-1.417 0l.001.001a.889.889 0 0 1-.001-1.319l.001-.001a1.048 1.048 0 0 1 1.417 0l-.001-.001z"/></symbol><symbol id="icon-twitter" viewBox="0 0 32 32"><path d="M32 6.078c-1.1.493-2.376.857-3.713 1.028l-.068.007a6.556 6.556 0 0 0 2.873-3.579l.013-.046a12.88 12.88 0 0 1-4.076 1.573l-.084.014A6.558 6.558 0 0 0 15.6 9.557v.004c0 .52.043 1.021.152 1.496-5.454-.266-10.28-2.88-13.522-6.861a6.524 6.524 0 0 0-.902 3.313v.001a6.57 6.57 0 0 0 2.914 5.451 6.453 6.453 0 0 1-2.994-.823l.033.017v.072a6.592 6.592 0 0 0 5.213 6.44l.043.008a6.403 6.403 0 0 1-1.662.215h-.061.003c-.419 0-.843-.024-1.242-.112.85 2.598 3.261 4.509 6.13 4.57a13.093 13.093 0 0 1-8.122 2.8H1.57h.001-.062c-.531 0-1.055-.034-1.569-.099l.061.006c2.826 1.846 6.287 2.944 10.004 2.944h.063-.003c12.072 0 18.672-10 18.672-18.669 0-.288-.01-.57-.024-.848a13.203 13.203 0 0 0 3.258-3.355l.03-.047z"/></symbol></defs></svg>