<svg aria-hidden="true" style="position: absolute; width: 0; height: 0; overflow: hidden;" version="1.1" xmlns="http://www.w3.org/2000/svg" xmlns:xlink="http://www.w3.org/1999/xlink">
<defs>
<symbol id="icon-icon_check" viewBox="0 0 34 32">
<path fill="#fff" style="fill: var(--color1, #fff); stroke: var(--color1, #fff)" stroke="#fff" stroke-linejoin="miter" stroke-linecap="butt" stroke-miterlimit="4" stroke-width="0.4267" d="M8.442 16.537l-0.147-0.14-2.205 2.088 7.767 7.41 16.318-15.567-2.19-2.089-14.128 13.465-5.416-5.167z"></path>
</symbol>
<symbol id="icon-mark" viewBox="0 0 32 32">
<path d="M28.444 4.333v23.333h-24.889v-23.333h24.889zM28.444 1h-24.889c-1.956 0-3.556 1.5-3.556 3.333v23.333c0 1.833 1.6 3.333 3.556 3.333h24.889c1.956 0 3.556-1.5 3.556-3.333v-23.333c0-1.833-1.6-3.333-3.556-3.333z"></path>
</symbol>
<symbol id="icon-close" viewBox="0 0 32 32">
<path d="M26.667 7.303l-1.97-1.97-7.808 7.808-7.808-7.808-1.97 1.97 7.808 7.808-7.808 7.808 1.97 1.97 7.808-7.808 7.808 7.808 1.97-1.97-7.808-7.808 7.808-7.808z"></path>
</symbol>
<symbol id="icon-icon_check1" viewBox="0 0 34 32">
<path fill="#fff" style="fill: var(--color1, #fff); stroke: var(--color1, #fff)" stroke="#fff" stroke-linejoin="miter" stroke-linecap="butt" stroke-miterlimit="4" stroke-width="0.4267" d="M8.442 16.537l-0.147-0.14-2.205 2.088 7.767 7.41 16.318-15.567-2.19-2.089-14.128 13.465-5.416-5.167z"></path>
</symbol>
<symbol id="icon-icon-mail" viewBox="0 0 32 32">
<path d="M26.667 5.333h-21.333c-1.467 0-2.653 1.2-2.653 2.667l-0.013 16c0 1.467 1.2 2.667 2.667 2.667h21.333c1.467 0 2.667-1.2 2.667-2.667v-16c0-1.467-1.2-2.667-2.667-2.667zM26.133 11l-9.427 5.893c-0.427 0.267-0.987 0.267-1.413 0l-9.427-5.893c-0.333-0.213-0.533-0.573-0.533-0.96 0-0.893 0.973-1.427 1.733-0.96l8.933 5.587 8.933-5.587c0.76-0.467 1.733 0.067 1.733 0.96 0 0.387-0.2 0.747-0.533 0.96z"></path>
</symbol>
<symbol id="icon-icon-name" viewBox="0 0 32 32">
<path d="M16 16c2.947 0 5.333-2.387 5.333-5.333s-2.387-5.333-5.333-5.333c-2.947 0-5.333 2.387-5.333 5.333s2.387 5.333 5.333 5.333zM16 18.667c-3.56 0-10.667 1.787-10.667 5.333v1.333c0 0.733 0.6 1.333 1.333 1.333h18.667c0.733 0 1.333-0.6 1.333-1.333v-1.333c0-3.547-7.107-5.333-10.667-5.333z"></path>
</symbol>
<symbol id="icon-icon-phone" viewBox="0 0 32 32">
<path d="M24.882 19.773l-3.268-0.373c-0.785-0.090-1.557 0.18-2.11 0.733l-2.367 2.367c-3.641-1.853-6.626-4.825-8.478-8.478l2.38-2.38c0.553-0.553 0.823-1.325 0.733-2.11l-0.373-3.242c-0.154-1.299-1.248-2.277-2.56-2.277h-2.226c-1.454 0-2.663 1.209-2.573 2.663 0.682 10.987 9.469 19.761 20.443 20.443 1.454 0.090 2.663-1.119 2.663-2.573v-2.226c0.013-1.3-0.965-2.393-2.264-2.547z"></path>
</symbol>
<symbol id="icon-icon_check2" viewBox="0 0 32 32">
<path fill="#fff" style="fill: var(--color1, #fff); stroke: var(--color1, #fff)" stroke="#fff" stroke-linejoin="miter" stroke-linecap="butt" stroke-miterlimit="4" stroke-width="0.4" d="M7.914 16.503l-0.138-0.131-2.067 1.958 7.282 6.947 15.298-14.594-2.053-1.959-13.245 12.623-5.077-4.844z"></path>
</symbol>
<symbol id="icon-icon_send" viewBox="0 0 32 32">
<path fill="#fff" style="fill: var(--color1, #fff)" d="M32 0l-32 18 10.227 3.788 15.773-14.788-11.998 16.186 0.010 0.004-0.012-0.004v8.814l5.735-6.691 7.265 2.691 5-28z"></path>
</symbol>
<symbol id="icon-client1" viewBox="0 0 32 32">
<path d="M5.34 0l4.677 4.428h13.046v12.351l4.677 4.428v-21.206h-22.4z"></path>
<path d="M1.5 4.241v20.6h21.76v-8.188l-13.105-12.407-8.655-0.005zM19.115 21.828h-14.172v-13.855h1.002v12.917h13.17v0.938zM7.766 28.662l0.524-1.078h0.438l-0.764 1.437v0.838h-0.397v-0.838l-0.764-1.437h0.439l0.524 1.078zM10.013 29.329h-0.881l-0.184 0.53h-0.411l0.859-2.275h0.355l0.861 2.275h-0.413l-0.186-0.53zM9.243 29.010h0.659l-0.33-0.944-0.33 0.944zM11.571 29.244c0-0.105 0.029-0.202 0.086-0.289 0.058-0.089 0.17-0.193 0.339-0.314-0.069-0.083-0.131-0.176-0.182-0.276l-0.004-0.008c-0.031-0.066-0.050-0.144-0.052-0.226v0c0-0.179 0.054-0.319 0.163-0.422s0.254-0.156 0.437-0.156c0.166 0 0.301 0.049 0.406 0.147s0.16 0.218 0.16 0.361c0 0.001 0 0.002 0 0.003 0 0.096-0.027 0.186-0.074 0.262l0.001-0.002c-0.063 0.095-0.142 0.174-0.233 0.236l-0.003 0.002-0.155 0.113 0.44 0.518c0.063-0.125 0.095-0.264 0.095-0.417h0.33c0 0.28-0.065 0.509-0.196 0.689l0.334 0.396h-0.44l-0.128-0.152c-0.154 0.115-0.348 0.183-0.558 0.183-0.008 0-0.017 0-0.025 0h0.001c-0.225 0-0.405-0.060-0.54-0.179-0.124-0.11-0.202-0.27-0.202-0.447 0-0.007 0-0.014 0-0.021v0.001zM12.324 29.587c0.128 0 0.248-0.043 0.359-0.128l-0.497-0.586-0.049 0.035c-0.125 0.095-0.188 0.203-0.188 0.325 0 0.105 0.034 0.191 0.102 0.256 0.066 0.061 0.156 0.099 0.254 0.099 0.006 0 0.013 0 0.019 0h-0.001zM12.114 28.121c0 0.088 0.054 0.197 0.161 0.33l0.173-0.118 0.049-0.039c0.059-0.052 0.097-0.128 0.097-0.212 0-0.003 0-0.006 0-0.009v0c0-0.001 0-0.001 0-0.002 0-0.059-0.026-0.112-0.067-0.149v0c-0.042-0.040-0.099-0.064-0.162-0.064-0.003 0-0.006 0-0.009 0v0c-0.003 0-0.006 0-0.010 0-0.066 0-0.126 0.029-0.167 0.075v0c-0.041 0.048-0.066 0.111-0.066 0.179 0 0.003 0 0.007 0 0.010v0zM16.248 29.118c-0.023 0.243-0.113 0.432-0.269 0.568s-0.364 0.204-0.623 0.204c-0.181 0-0.341-0.043-0.48-0.128-0.139-0.089-0.248-0.214-0.317-0.362l-0.002-0.005c-0.074-0.16-0.117-0.347-0.117-0.544 0-0.003 0-0.005 0-0.008v0-0.212c0-0.214 0.038-0.403 0.114-0.567s0.186-0.29 0.326-0.378c0.143-0.089 0.307-0.133 0.494-0.133 0.251 0 0.453 0.068 0.606 0.205s0.243 0.329 0.268 0.578h-0.394c-0.019-0.163-0.067-0.281-0.144-0.353s-0.188-0.109-0.336-0.109c-0.172 0-0.304 0.063-0.397 0.189-0.092 0.125-0.138 0.309-0.141 0.552v0.202c0 0.246 0.044 0.433 0.132 0.563s0.218 0.194 0.387 0.194c0.155 0 0.272-0.035 0.35-0.105s0.128-0.186 0.148-0.348h0.394zM18.418 28.78c0 0.223-0.038 0.419-0.115 0.588-0.077 0.168-0.188 0.297-0.332 0.388-0.143 0.090-0.307 0.134-0.494 0.134-0.184 0-0.349-0.045-0.493-0.134-0.146-0.094-0.261-0.225-0.332-0.38l-0.002-0.006c-0.075-0.163-0.119-0.354-0.119-0.555 0-0.008 0-0.015 0-0.023v0.001-0.128c0-0.222 0.038-0.418 0.117-0.588s0.19-0.3 0.333-0.389c0.144-0.091 0.308-0.136 0.493-0.136s0.35 0.045 0.493 0.134c0.143 0.089 0.255 0.217 0.333 0.384s0.118 0.362 0.118 0.584v0.126zM18.022 28.662c0-0.252-0.048-0.445-0.143-0.58-0.085-0.123-0.225-0.202-0.384-0.202-0.007 0-0.015 0-0.022 0.001h0.001c-0.005 0-0.011 0-0.016 0-0.159 0-0.299 0.079-0.384 0.2l-0.001 0.002c-0.096 0.133-0.145 0.323-0.147 0.567v0.131c0 0.25 0.049 0.444 0.146 0.58s0.233 0.205 0.406 0.205c0.175 0 0.31-0.067 0.403-0.2 0.095-0.133 0.142-0.328 0.142-0.584v-0.118z"></path>
</symbol>
<symbol id="icon-client2" viewBox="0 0 32 32">
<path d="M13.947 1.806h0.084c0.156 0 0.324 0.015 0.49 0.030 0.734 0.052 1.463 0.162 2.18 0.329v-1.762c-0.652-0.172-1.42-0.299-2.207-0.357l-0.042-0.002c-0.254-0.020-0.571-0.035-0.889-0.043h-0.284c-1.523 0.006-3.040 0.201-4.514 0.582-1.68 0.418-3.293 1.075-4.79 1.948v17.475c1.312-0.729 2.832-1.339 4.431-1.75l0.135-0.029c1.123-0.3 2.433-0.51 3.78-0.586l0.052-0.002h0.052c0.217-0.011 0.433-0.017 0.655-0.018v-1.791c-1.78 0.024-3.493 0.264-5.129 0.695l0.147-0.033c-0.603 0.157-1.185 0.326-1.731 0.513l-0.623 0.212v-13.626l0.266-0.128c1.89-0.918 4.096-1.513 6.425-1.649l0.047-0.002c0.008-0.001 0.018-0.001 0.028-0.001s0.019 0 0.029 0.001h-0.001c0.248-0.012 0.497-0.018 0.742-0.018h0.28c0.129 0.003 0.258 0.006 0.388 0.014z"></path>
<path d="M18.337 3.651c-0.005 0-0.010 0-0.016 0-0.915 0-1.811-0.077-2.684-0.225l0.094 0.013c-0.277-0.047-0.55-0.103-0.814-0.164v17.275c1.12 0.277 2.271 0.412 3.425 0.404 1.607-0.007 3.162-0.218 4.644-0.61l-0.128 0.029c1.817-0.461 3.412-1.129 4.877-1.995l-0.085 0.047v-17.163c-1.311 0.728-2.83 1.338-4.429 1.751l-0.136 0.030c-1.551 0.399-3.146 0.603-4.746 0.609zM25.245 3.95l0.623-0.209v13.63l-0.266 0.129c-0.903 0.442-1.962 0.834-3.065 1.118l-0.119 0.026c-1.331 0.345-2.699 0.521-4.074 0.527-0.411 0-0.818-0.017-1.214-0.052l-0.426-0.038v-14.017l0.497 0.033c0.361 0.023 0.735 0.034 1.141 0.034 1.841-0.007 3.622-0.248 5.32-0.696l-0.147 0.033c0.581-0.154 1.158-0.326 1.731-0.518zM5.184 25.977c-0.167-0.173-0.401-0.281-0.661-0.281-0.011 0-0.023 0-0.034 0.001h0.002c-0.004 0-0.009 0-0.014 0-0.139 0-0.272 0.028-0.393 0.078l0.007-0.003c-0.237 0.095-0.42 0.28-0.51 0.512l-0.002 0.006c-0.049 0.123-0.073 0.254-0.071 0.386v2.335c-0.006 0.164 0.026 0.328 0.092 0.479 0.055 0.12 0.135 0.226 0.234 0.313 0.093 0.078 0.202 0.135 0.32 0.166 0.114 0.031 0.231 0.048 0.349 0.048 0.13 0.001 0.258-0.026 0.377-0.081 0.351-0.156 0.591-0.5 0.591-0.901v-0.261h-0.611v0.208c0 0.004 0 0.009 0 0.014 0 0.070-0.013 0.136-0.037 0.198l0.001-0.004c-0.021 0.052-0.051 0.095-0.089 0.132v0c-0.070 0.054-0.159 0.088-0.255 0.089v0c-0.011 0.001-0.023 0.002-0.036 0.002-0.103 0-0.194-0.050-0.25-0.127l-0.001-0.001c-0.051-0.082-0.082-0.182-0.082-0.289 0-0.008 0-0.016 0.001-0.024v0.001-2.177c-0.004-0.121 0.022-0.24 0.075-0.349 0.056-0.087 0.153-0.143 0.262-0.143 0.013 0 0.025 0.001 0.038 0.002h-0.001c0.003 0 0.007 0 0.012 0 0.107 0 0.201 0.052 0.26 0.131l0.001 0.001c0.063 0.082 0.101 0.187 0.101 0.3 0 0.005 0 0.009 0 0.014v-0.001 0.202h0.604v-0.238c0-0.003 0-0.007 0-0.011 0-0.143-0.027-0.28-0.077-0.405l0.003 0.007c-0.048-0.128-0.117-0.237-0.205-0.329v0zM8.81 25.951c-0.186-0.158-0.429-0.255-0.694-0.257v0c-0.124 0-0.248 0.023-0.364 0.066-0.252 0.090-0.451 0.276-0.557 0.511l-0.002 0.006c-0.062 0.142-0.092 0.297-0.089 0.452v2.239c-0.004 0.158 0.026 0.314 0.089 0.458 0.055 0.121 0.136 0.228 0.237 0.313 0.094 0.086 0.203 0.154 0.322 0.197 0.117 0.043 0.24 0.065 0.364 0.066 0.267-0.001 0.51-0.1 0.695-0.264l-0.001 0.001c0.097-0.087 0.176-0.194 0.23-0.313 0.063-0.144 0.093-0.301 0.089-0.458v-2.239c0-0.006 0-0.014 0-0.021 0-0.156-0.033-0.304-0.092-0.438l0.003 0.007c-0.057-0.128-0.135-0.237-0.23-0.327v0zM8.525 28.969c0.001 0.010 0.002 0.023 0.002 0.035 0 0.114-0.047 0.216-0.123 0.289v0c-0.077 0.065-0.178 0.105-0.287 0.105s-0.21-0.040-0.288-0.105l0.001 0.001c-0.076-0.073-0.123-0.175-0.123-0.289 0-0.012 0.001-0.025 0.002-0.037v0.002-2.239c-0.001-0.010-0.001-0.022-0.001-0.034 0-0.113 0.047-0.216 0.123-0.289v0c0.077-0.065 0.178-0.105 0.287-0.105s0.21 0.040 0.288 0.105l-0.001-0.001c0.076 0.073 0.123 0.175 0.123 0.289 0 0.012-0.001 0.025-0.002 0.037v-0.002 2.24zM13.572 29.969v-4.24h-0.586l-0.771 2.244h-0.010l-0.777-2.244h-0.58v4.239h0.606v-2.578h0.011l0.593 1.823h0.302l0.598-1.823h0.010v2.578h0.606zM17.013 26.027c-0.093-0.105-0.211-0.185-0.342-0.232-0.124-0.042-0.267-0.066-0.416-0.066-0.008 0-0.016 0-0.024 0h-0.899v4.24h0.604v-1.656h0.311c0.189 0.009 0.376-0.031 0.545-0.116 0.139-0.078 0.251-0.188 0.329-0.32l0.002-0.004c0.070-0.113 0.117-0.238 0.138-0.369 0.021-0.133 0.033-0.287 0.033-0.444 0-0.013 0-0.027 0-0.040v0.002c0.006-0.203-0.014-0.407-0.059-0.606-0.043-0.153-0.12-0.284-0.223-0.39v0zM16.701 27.319c-0.003 0.081-0.023 0.157-0.057 0.224l0.001-0.003c-0.035 0.065-0.089 0.116-0.154 0.147l-0.002 0.001c-0.075 0.034-0.162 0.054-0.254 0.054-0.011 0-0.022 0-0.033-0.001h-0.274v-1.441h0.311c0.009 0 0.019-0.001 0.029-0.001 0.088 0 0.172 0.020 0.247 0.055l-0.004-0.002c0.062 0.036 0.111 0.090 0.141 0.154l0.001 0.002c0.033 0.074 0.051 0.155 0.053 0.236v0.282c0 0.098 0.006 0.201 0 0.291h-0.006zM19.874 25.729h-0.495l-0.934 4.24h0.604l0.177-0.911h0.823l0.178 0.911h0.604l-0.957-4.24zM19.317 28.481l0.297-1.537h0.011l0.295 1.537h-0.604zM23.777 28.283h-0.011l-0.913-2.554h-0.58v4.24h0.604v-2.55h0.012l0.923 2.549h0.568v-4.239h-0.604v2.554zM27.468 25.729l-0.486 1.686h-0.012l-0.486-1.686h-0.639l0.83 2.448v1.791h0.604v-1.791l0.83-2.447h-0.64zM3.5 31.166h0.291v0.817h0.198v-0.817h0.289v-0.167h-0.778v0.168zM5.947 30.998l-0.382 0.985h0.21l0.081-0.224h0.392l0.084 0.224h0.215l-0.391-0.985h-0.21zM5.917 31.593l0.134-0.365 0.134 0.365h-0.268zM8.366 31.62h0.228v0.127c-0.063 0.051-0.145 0.082-0.234 0.083v0c-0.004 0-0.009 0-0.014 0-0.079 0-0.149-0.037-0.195-0.094v0c-0.046-0.065-0.073-0.147-0.073-0.234 0-0.008 0-0.016 0.001-0.023v0.001c0-0.219 0.095-0.329 0.283-0.329 0.006-0.001 0.014-0.001 0.021-0.001 0.097 0 0.178 0.067 0.201 0.157v0.001l0.194-0.038c-0.042-0.192-0.18-0.289-0.417-0.289-0.004 0-0.008 0-0.013 0-0.127 0-0.244 0.048-0.331 0.127v0c-0.088 0.087-0.143 0.208-0.143 0.342 0 0.013 0 0.026 0.002 0.038v-0.002c0 0.007 0 0.015 0 0.023 0 0.132 0.048 0.254 0.127 0.347l-0.001-0.001c0.087 0.090 0.209 0.146 0.343 0.146 0.011 0 0.021 0 0.032-0.001h-0.001c0.005 0 0.010 0 0.016 0 0.155 0 0.296-0.060 0.402-0.157v0-0.388h-0.426v0.166zM10.837 30.998h-0.199v0.985h0.689v-0.167h-0.49v-0.817zM12.926 30.998h-0.199v0.985h0.199v-0.985zM14.969 31.655l-0.404-0.657h-0.193v0.985h0.185v-0.643l0.396 0.643h0.198v-0.985h-0.182v0.658zM16.815 31.549h0.49v-0.167h-0.49v-0.215h0.527v-0.168h-0.727v0.985h0.747v-0.167h-0.548v-0.266zM21.292 31.386h-0.388v-0.388h-0.198v0.984h0.198v-0.431h0.388v0.431h0.198v-0.985h-0.198v0.388zM23.149 31.549h0.492v-0.167h-0.492v-0.215h0.529v-0.168h-0.726v0.985h0.746v-0.167h-0.548v-0.266zM25.668 31.55c0.172-0.027 0.258-0.118 0.258-0.274 0.001-0.008 0.002-0.018 0.002-0.028 0-0.079-0.038-0.148-0.098-0.191h-0.001c-0.073-0.037-0.159-0.059-0.25-0.059-0.014 0-0.027 0-0.040 0.001h-0.415v0.984h0.198v-0.412h0.039c0.005 0 0.010 0 0.016 0 0.039 0 0.076 0.008 0.109 0.023l-0.002-0.001c0.029 0.018 0.053 0.042 0.070 0.072l0.215 0.313h0.236l-0.12-0.192c-0.054-0.096-0.128-0.175-0.215-0.235l-0.002-0.002zM25.469 31.413h-0.146v-0.247h0.156c0.012-0.001 0.027-0.002 0.042-0.002 0.057 0 0.111 0.009 0.163 0.026l-0.004-0.001c0.026 0.024 0.043 0.058 0.043 0.096 0 0.042-0.020 0.080-0.052 0.104v0c-0.049 0.016-0.106 0.025-0.164 0.025-0.013 0-0.026 0-0.039-0.001h0.002zM27.568 31.549h0.49v-0.167h-0.49v-0.215h0.529v-0.168h-0.728v0.985h0.747v-0.167h-0.548v-0.266z"></path>
</symbol>
<symbol id="icon-client3" viewBox="0 0 32 32">
<path d="M5.222 31.103c0.023 0.001 0.044 0.010 0.060 0.025v0l0.153 0.161c-0.119 0.13-0.266 0.234-0.431 0.304-0.194 0.077-0.401 0.115-0.61 0.109-0.009 0-0.020 0-0.031 0-0.196 0-0.382-0.038-0.554-0.106l0.010 0.004c-0.332-0.134-0.588-0.397-0.709-0.725l-0.003-0.009c-0.061-0.164-0.097-0.353-0.097-0.55 0-0.007 0-0.015 0-0.022v0.001c0-0.007 0-0.015 0-0.023 0-0.198 0.038-0.387 0.108-0.56l-0.004 0.010c0.067-0.165 0.168-0.316 0.298-0.444 0.13-0.127 0.286-0.225 0.459-0.29 0.188-0.070 0.389-0.104 0.591-0.102 0.188-0.004 0.375 0.027 0.55 0.093 0.151 0.063 0.29 0.149 0.412 0.257l-0.129 0.171c-0.009 0.012-0.020 0.023-0.032 0.031v0c-0.013 0.009-0.028 0.014-0.045 0.014-0.002 0-0.004 0-0.006 0v0c-0.021-0.001-0.040-0.008-0.056-0.019v0l-0.068-0.045-0.096-0.059c-0.087-0.046-0.189-0.082-0.296-0.101l-0.006-0.001c-0.063-0.011-0.135-0.018-0.209-0.018-0.007 0-0.013 0-0.020 0h0.001c-0.005 0-0.010 0-0.016 0-0.147 0-0.288 0.028-0.417 0.079l0.008-0.003c-0.13 0.051-0.241 0.124-0.333 0.216v0c-0.095 0.099-0.169 0.216-0.216 0.342-0.054 0.145-0.081 0.298-0.079 0.452-0.002 0.156 0.025 0.313 0.079 0.46 0.046 0.126 0.119 0.242 0.212 0.341 0.088 0.093 0.196 0.165 0.318 0.212 0.125 0.049 0.259 0.074 0.394 0.073 0.078 0.001 0.156-0.004 0.234-0.015 0.127-0.015 0.247-0.057 0.354-0.122 0.054-0.034 0.104-0.071 0.151-0.113 0.019-0.017 0.044-0.029 0.072-0.030v0zM9.644 30.296c0.002 0.194-0.033 0.387-0.103 0.568-0.067 0.172-0.165 0.319-0.288 0.44v0c-0.126 0.123-0.276 0.221-0.444 0.286l-0.009 0.003c-0.173 0.065-0.373 0.102-0.582 0.102s-0.409-0.037-0.594-0.106l0.012 0.004c-0.175-0.069-0.325-0.167-0.45-0.29v0c-0.123-0.123-0.222-0.271-0.288-0.436l-0.003-0.009c-0.065-0.169-0.103-0.364-0.103-0.568s0.038-0.399 0.107-0.579l-0.004 0.011c0.065-0.166 0.164-0.318 0.29-0.447 0.126-0.119 0.276-0.214 0.441-0.276l0.009-0.003c0.173-0.066 0.373-0.104 0.582-0.104s0.409 0.038 0.594 0.108l-0.012-0.004c0.17 0.066 0.324 0.164 0.452 0.29 0.127 0.127 0.224 0.275 0.289 0.439 0.071 0.182 0.106 0.376 0.104 0.571zM9.242 30.296c0-0.007 0-0.016 0-0.024 0-0.155-0.027-0.303-0.076-0.441l0.003 0.009c-0.087-0.256-0.278-0.457-0.522-0.554l-0.006-0.002c-0.126-0.047-0.271-0.075-0.423-0.075s-0.297 0.027-0.432 0.078l0.009-0.003c-0.251 0.099-0.443 0.299-0.528 0.55l-0.002 0.006c-0.097 0.298-0.097 0.615 0 0.912 0.087 0.256 0.279 0.457 0.524 0.552l0.006 0.002c0.273 0.097 0.573 0.097 0.846 0 0.124-0.048 0.234-0.121 0.324-0.214 0.092-0.1 0.162-0.216 0.205-0.341 0.052-0.147 0.076-0.301 0.073-0.456zM12.66 30.774l0.041 0.102c0.015-0.036 0.028-0.069 0.044-0.102 0.017-0.040 0.034-0.073 0.052-0.105l-0.002 0.005 0.978-1.694c0.019-0.030 0.037-0.048 0.056-0.053 0.020-0.006 0.043-0.009 0.066-0.009 0.005 0 0.010 0 0.015 0h0.288v2.755h-0.342v-2.11c-0.001-0.014-0.001-0.031-0.001-0.048s0.001-0.033 0.001-0.050v0.002l-0.984 1.718c-0.013 0.026-0.033 0.048-0.057 0.062h-0.001c-0.023 0.014-0.052 0.022-0.082 0.022-0.001 0-0.002 0-0.002 0h-0.055c-0.030 0.001-0.060-0.007-0.084-0.022s-0.044-0.036-0.057-0.062v-0.001l-1.013-1.73v2.212h-0.331v-2.75h0.289c0.004 0 0.009 0 0.014 0 0.024 0 0.046 0.003 0.068 0.010h-0.002c0.024 0.011 0.042 0.029 0.053 0.052v0.001l0.999 1.696c0.018 0.028 0.035 0.060 0.048 0.094l0.001 0.004zM16.341 30.638v1.031h-0.383v-2.75h0.854c0.010 0 0.021 0 0.033 0 0.158 0 0.311 0.022 0.455 0.063l-0.012-0.003c0.124 0.034 0.239 0.092 0.337 0.171 0.085 0.074 0.15 0.167 0.191 0.27 0.045 0.112 0.067 0.232 0.066 0.352 0.002 0.121-0.022 0.24-0.071 0.352-0.049 0.109-0.119 0.201-0.205 0.274l-0.001 0.001c-0.095 0.080-0.209 0.143-0.333 0.181l-0.007 0.002c-0.149 0.045-0.305 0.067-0.461 0.064l-0.463-0.007zM16.341 30.342h0.464c0.1 0.002 0.201-0.013 0.296-0.042 0.083-0.027 0.154-0.068 0.215-0.12l-0.001 0.001c0.056-0.049 0.1-0.11 0.129-0.178l0.001-0.003c0.029-0.066 0.046-0.144 0.046-0.225 0-0.003 0-0.005 0-0.008v0c0-0.008 0.001-0.018 0.001-0.028 0-0.071-0.015-0.138-0.041-0.199l0.001 0.003c-0.032-0.074-0.077-0.137-0.133-0.188v0c-0.126-0.094-0.285-0.15-0.457-0.15-0.020 0-0.040 0.001-0.060 0.002h-0.461v1.134zM21.487 31.673h-0.302c-0.002 0-0.004 0-0.006 0-0.030 0-0.057-0.010-0.079-0.026v0c-0.021-0.017-0.038-0.038-0.049-0.063v-0.001l-0.26-0.665h-1.307l-0.27 0.665c-0.011 0.025-0.027 0.046-0.047 0.061v0c-0.022 0.017-0.051 0.028-0.082 0.028-0.002 0-0.003 0-0.005 0h-0.302l1.148-2.756h0.398l1.164 2.756zM19.592 30.65h1.079l-0.455-1.122c-0.030-0.071-0.060-0.157-0.083-0.245l-0.003-0.013-0.044 0.144c-0.015 0.049-0.029 0.088-0.045 0.126l0.003-0.009-0.452 1.119zM23.14 28.93c0.023 0.013 0.043 0.030 0.058 0.050l1.674 2.076v-2.139h0.342v2.756h-0.191c-0.001 0-0.003 0-0.005 0-0.027 0-0.052-0.006-0.074-0.017h0.001c-0.024-0.014-0.044-0.031-0.061-0.051v0l-1.674-2.075c0.002 0.031 0.002 0.063 0 0.095v2.049h-0.342v-2.756h0.203c0.024 0 0.047 0.004 0.068 0.013zM28.037 30.577v1.094h-0.383v-1.094l-1.058-1.66h0.342c0.002 0 0.005 0 0.008 0 0.028 0 0.054 0.009 0.075 0.024v0c0.021 0.018 0.038 0.038 0.052 0.061l0.001 0.001 0.662 1.070c0.026 0.045 0.049 0.088 0.068 0.128s0.034 0.078 0.048 0.116l0.050-0.118c0.021-0.049 0.043-0.090 0.068-0.13l-0.002 0.004 0.653-1.078c0.014-0.022 0.031-0.042 0.050-0.059v0c0.020-0.017 0.047-0.027 0.076-0.027 0.002 0 0.004 0 0.006 0h0.346l-1.060 1.667zM12.471 24.293c0.167 0.020 0.335 0.037 0.506 0.051 2.582-1.101 4.767-2.902 6.281-5.18s2.29-4.93 2.231-7.625l-2.846-2.712c0.189 0.894 0.297 1.921 0.297 2.974 0 2.015-0.396 3.937-1.115 5.694l0.036-0.1c-1.090 2.731-2.957 5.12-5.39 6.899z"></path>
<path d="M11.454 24.167l0.077 0.015c2.6-1.773 4.583-4.247 5.692-7.104 0.627-1.564 0.991-3.378 0.991-5.276 0-1.296-0.17-2.553-0.488-3.748l0.023 0.101-4.054-3.862c1.269 2.397 2.015 5.239 2.015 8.255 0 0.701-0.040 1.393-0.119 2.074l0.008-0.083c-0.397 3.519-1.834 6.857-4.144 9.628zM25.204 14.724c-0.688 2.962-2.361 5.632-4.77 7.616-0.665 0.553-1.406 1.066-2.191 1.51l-0.075 0.039c2.039-0.578 3.804-1.556 5.285-2.851l-0.016 0.013c1.465-1.281 2.625-2.875 3.381-4.679l0.031-0.084-1.645-1.565z"></path>
<path d="M24.56 14.288l-2.341-2.23c-0.053 2.681-0.865 5.162-2.23 7.249l0.032-0.053c-1.394 2.169-3.373 3.943-5.729 5.137h0.012c0.525 0 1.049-0.030 1.572-0.089 2.251-0.884 4.15-2.237 5.649-3.95l0.014-0.017c1.454-1.66 2.512-3.704 3.005-5.958l0.016-0.089zM11.794 2.664l-2.793-2.664c-2.497 0.919-4.644 2.535-6.16 4.636s-2.333 4.589-2.34 7.139c0.010 2.818 1.005 5.552 2.829 7.77s4.372 3.793 7.242 4.476c2.562-2.973 4.061-6.647 4.281-10.488s-0.851-7.648-3.059-10.87zM31.012 13.878c-0.010-3.343-1.409-6.547-3.89-8.91s-5.843-3.696-9.352-3.706c-1.622-0.002-3.23 0.284-4.741 0.841l17.099 16.29c0.559-1.335 0.884-2.886 0.884-4.513 0 0 0-0.001 0-0.001v0z"></path>
</symbol>
<symbol id="icon-client4" viewBox="0 0 32 32">
<path d="M4.922 12.559h-0.001c-0.898 0-1.626 0.71-1.626 1.585v0.001c0 0.875 0.728 1.585 1.626 1.585h0.001c0.898 0 1.626-0.71 1.626-1.585v-0.001c0-0.875-0.728-1.584-1.626-1.584zM16.923 12.053c-0.003-1.215-0.499-2.38-1.381-3.24-0.881-0.859-2.076-1.343-3.323-1.346-1.247 0.002-2.443 0.486-3.326 1.346s-1.379 2.025-1.381 3.241v6.702s9.411-1.021 9.412-6.701v-0.001zM0 20.954c0.004 0.885 0.372 1.683 0.961 2.254l0.001 0.001c0.598 0.579 1.413 0.937 2.313 0.938v0c0.899-0.001 1.715-0.358 2.313-0.938l-0.001 0.001c0.59-0.571 0.957-1.369 0.962-2.253v-4.665s-6.548 0.712-6.548 4.663zM3.275 21.789c-0.001 0-0.001 0-0.002 0-0.177 0-0.341-0.052-0.478-0.142l0.003 0.002c-0.139-0.091-0.248-0.219-0.314-0.37l-0.002-0.005c-0.041-0.094-0.065-0.204-0.065-0.319 0-0.058 0.006-0.114 0.018-0.168l-0.001 0.005c0.034-0.162 0.115-0.311 0.235-0.428 0.117-0.114 0.267-0.195 0.434-0.228l0.005-0.001c0.166-0.033 0.339-0.016 0.495 0.047s0.291 0.17 0.385 0.308c0.091 0.13 0.145 0.291 0.145 0.465 0 0.115-0.024 0.225-0.067 0.325l0.002-0.005c-0.043 0.102-0.106 0.195-0.186 0.273s-0.174 0.14-0.278 0.182c-0.097 0.041-0.21 0.064-0.329 0.064 0 0 0 0-0.001 0v0-0.003zM9.958 21.271h-0.67v0.692h-0.349v-1.692h1.102v0.283h-0.753v0.437h0.669v0.282zM11.635 21.155c0 0.167-0.030 0.313-0.089 0.438s-0.143 0.222-0.254 0.291c-0.103 0.065-0.229 0.102-0.364 0.102-0.005 0-0.009 0-0.013 0h0.001c-0.14 0-0.266-0.034-0.375-0.101-0.111-0.070-0.199-0.167-0.254-0.284l-0.002-0.004c-0.058-0.123-0.092-0.266-0.092-0.418 0-0.005 0-0.011 0-0.015v0.001-0.084c0-0.167 0.030-0.314 0.090-0.44s0.145-0.224 0.254-0.292c0.11-0.068 0.236-0.102 0.377-0.102s0.266 0.034 0.375 0.102c0.11 0.068 0.195 0.165 0.254 0.292s0.091 0.273 0.091 0.438v0.075zM11.282 21.078c0-0.178-0.032-0.313-0.095-0.405-0.057-0.084-0.151-0.139-0.259-0.139-0.005 0-0.010 0-0.014 0.001h0.001c-0.004 0-0.009 0-0.013 0-0.107 0-0.202 0.054-0.257 0.137l-0.001 0.001c-0.063 0.091-0.096 0.224-0.097 0.399v0.083c0 0.173 0.032 0.307 0.095 0.403s0.155 0.143 0.275 0.143c0.004 0 0.009 0.001 0.014 0.001 0.107 0 0.2-0.054 0.255-0.136l0.001-0.001c0.063-0.092 0.094-0.226 0.095-0.403v-0.083zM12.766 21.519c0-0.003 0-0.006 0-0.010 0-0.058-0.027-0.109-0.070-0.141l-0.001-0.001c-0.046-0.036-0.13-0.073-0.251-0.112-0.111-0.035-0.207-0.074-0.298-0.121l0.010 0.005c-0.192-0.104-0.289-0.244-0.289-0.42 0-0.091 0.026-0.173 0.077-0.244s0.126-0.128 0.222-0.169c0.097-0.040 0.205-0.060 0.325-0.060s0.229 0.022 0.323 0.066c0.095 0.044 0.168 0.105 0.22 0.185 0.053 0.080 0.079 0.171 0.079 0.273h-0.349c0-0.078-0.024-0.138-0.073-0.18-0.049-0.044-0.117-0.066-0.206-0.066-0.085 0-0.151 0.018-0.198 0.055-0.044 0.031-0.071 0.081-0.071 0.138 0 0.002 0 0.003 0 0.004v0c0 0.055 0.028 0.101 0.083 0.138 0.056 0.037 0.138 0.072 0.246 0.105 0.198 0.060 0.343 0.134 0.434 0.222s0.136 0.198 0.136 0.33c0 0.147-0.055 0.262-0.166 0.345s-0.26 0.125-0.447 0.125c-0.13 0-0.249-0.024-0.356-0.071-0.101-0.043-0.183-0.11-0.244-0.195l-0.001-0.002c-0.053-0.078-0.084-0.175-0.084-0.278 0-0.003 0-0.007 0-0.010v0.001h0.35c0 0.187 0.112 0.28 0.335 0.28 0.083 0 0.148-0.017 0.195-0.050 0.042-0.030 0.070-0.079 0.070-0.135 0-0.003 0-0.005 0-0.007v0.001zM14.627 20.553h-0.518v1.41h-0.349v-1.41h-0.511v-0.283h1.379v0.283zM15.846 21.229h-0.67v0.453h0.786v0.28h-1.135v-1.692h1.133v0.283h-0.784v0.403h0.67v0.274zM16.794 21.343h-0.278v0.62h-0.349v-1.692h0.629c0.199 0 0.354 0.044 0.463 0.134s0.163 0.215 0.163 0.378c0 0.115-0.026 0.212-0.075 0.29-0.056 0.081-0.133 0.145-0.223 0.182l-0.003 0.001 0.366 0.692v0.016h-0.375l-0.317-0.62zM16.516 21.061h0.282c0.087 0 0.155-0.022 0.203-0.066 0.045-0.044 0.073-0.105 0.073-0.172 0-0.004 0-0.009-0.001-0.013v0.001c0-0.080-0.023-0.143-0.069-0.188-0.045-0.046-0.114-0.069-0.208-0.069h-0.281v0.508zM18.63 21.366v0.597h-0.349v-1.692h0.661c0.127 0 0.238 0.023 0.335 0.070s0.171 0.113 0.223 0.198c0.052 0.085 0.078 0.182 0.078 0.292 0 0.166-0.057 0.297-0.171 0.393-0.113 0.095-0.27 0.143-0.471 0.143h-0.306zM18.63 21.084h0.311c0.092 0 0.162-0.022 0.21-0.066 0.049-0.043 0.074-0.105 0.074-0.186 0-0.004 0.001-0.008 0.001-0.012 0-0.073-0.028-0.14-0.074-0.189v0c-0.049-0.051-0.116-0.077-0.203-0.079h-0.319v0.532zM20.837 21.229h-0.669v0.453h0.786v0.28h-1.135v-1.692h1.133v0.283h-0.783v0.403h0.669v0.274zM22.455 20.553h-0.518v1.41h-0.349v-1.41h-0.511v-0.283h1.379v0.283zM23.674 21.229h-0.669v0.453h0.786v0.28h-1.135v-1.692h1.133v0.283h-0.784v0.403h0.67v0.274zM24.622 21.343h-0.278v0.62h-0.349v-1.692h0.629c0.2 0 0.355 0.044 0.463 0.134s0.163 0.215 0.163 0.378c0 0.115-0.025 0.212-0.075 0.29-0.056 0.081-0.133 0.144-0.223 0.182l-0.003 0.001 0.366 0.692v0.016h-0.374l-0.317-0.62zM24.344 21.061h0.282c0.087 0 0.155-0.022 0.203-0.066 0.045-0.044 0.072-0.105 0.072-0.172 0-0.005 0-0.009-0.001-0.014v0.001c0-0.080-0.022-0.143-0.068-0.188s-0.114-0.069-0.209-0.069h-0.28v0.508zM26.394 21.519c0-0.003 0-0.006 0-0.010 0-0.058-0.027-0.109-0.070-0.141l-0.001-0.001c-0.046-0.036-0.13-0.073-0.251-0.112-0.111-0.035-0.207-0.074-0.298-0.121l0.010 0.005c-0.192-0.104-0.289-0.244-0.289-0.42 0-0.091 0.026-0.173 0.077-0.244s0.126-0.128 0.222-0.169c0.097-0.040 0.205-0.060 0.325-0.060s0.229 0.022 0.323 0.066c0.094 0.044 0.168 0.105 0.22 0.185 0.053 0.080 0.079 0.171 0.079 0.273h-0.349c0-0.078-0.024-0.138-0.073-0.18-0.049-0.044-0.117-0.066-0.206-0.066-0.085 0-0.151 0.018-0.199 0.055-0.043 0.031-0.071 0.081-0.071 0.138 0 0.002 0 0.003 0 0.004v0c0 0.055 0.028 0.101 0.083 0.138 0.056 0.037 0.138 0.072 0.245 0.105 0.198 0.060 0.343 0.134 0.434 0.222s0.136 0.198 0.136 0.33c0 0.147-0.055 0.262-0.166 0.345s-0.26 0.125-0.447 0.125c-0.13 0-0.249-0.024-0.356-0.071-0.1-0.043-0.183-0.11-0.244-0.195l-0.001-0.002c-0.053-0.078-0.084-0.175-0.084-0.278 0-0.003 0-0.007 0-0.010v0.001h0.35c0 0.187 0.112 0.28 0.335 0.28 0.083 0 0.148-0.017 0.195-0.050 0.042-0.030 0.069-0.079 0.069-0.135 0-0.003 0-0.005 0-0.007v0.001z"></path>
</symbol>
<symbol id="icon-client5" viewBox="0 0 32 32">
<path d="M2.445 24.594c0.126 0.155 0.192 0.35 0.189 0.55 0.001 0.013 0.001 0.028 0.001 0.042 0 0.259-0.113 0.492-0.292 0.652l-0.001 0.001c-0.243 0.185-0.545 0.274-0.849 0.254h-1.492v-3.489h1.462c0.025-0.002 0.054-0.002 0.082-0.002 0.273 0 0.526 0.088 0.731 0.238l-0.003-0.002c0.174 0.147 0.284 0.366 0.284 0.61 0 0.014-0.001 0.030-0.002 0.044v-0.002c0.009 0.192-0.052 0.382-0.17 0.534-0.114 0.138-0.27 0.234-0.445 0.272 0.198 0.037 0.377 0.142 0.504 0.298zM0.694 24.067h0.624c0.142 0.011 0.283-0.030 0.398-0.116 0.083-0.076 0.135-0.186 0.135-0.306 0-0.012-0.001-0.024-0.002-0.036v0.002c0.001-0.009 0.001-0.019 0.001-0.030 0-0.122-0.051-0.233-0.134-0.311v0c-0.099-0.074-0.225-0.12-0.36-0.12-0.017 0-0.034 0.001-0.051 0.002h-0.611v0.915zM1.778 25.405c0.091-0.080 0.149-0.197 0.149-0.326 0-0.010 0-0.019-0.001-0.029v0.002c0.001-0.008 0.001-0.017 0.001-0.026 0-0.133-0.058-0.251-0.151-0.333l-0.001-0.001c-0.106-0.079-0.239-0.127-0.384-0.127-0.014 0-0.029 0.001-0.043 0.002h-0.653v0.959h0.663c0.15 0.009 0.298-0.034 0.419-0.121zM5.432 26.094l-0.813-1.363h-0.306v1.363h-0.699v-3.489h1.323c0.027-0.002 0.059-0.003 0.091-0.003 0.317 0 0.608 0.114 0.834 0.302l-0.002-0.002c0.196 0.201 0.318 0.476 0.318 0.779 0 0.25-0.082 0.481-0.222 0.667l0.002-0.003c-0.163 0.188-0.386 0.314-0.631 0.354l0.866 1.394h-0.76zM4.314 24.254h0.572c0.398 0 0.596-0.176 0.596-0.528 0.001-0.009 0.001-0.019 0.001-0.030 0-0.141-0.056-0.269-0.147-0.362v0c-0.106-0.090-0.245-0.144-0.397-0.144-0.019 0-0.038 0.001-0.056 0.002h-0.577l0.007 1.062zM9.254 25.391h-1.394l-0.246 0.702h-0.733l1.28-3.45h0.793l1.274 3.45h-0.733l-0.241-0.702zM9.068 24.863l-0.51-1.472-0.51 1.472h1.018zM14.040 26.094h-0.695l-1.557-2.372v2.372h-0.692v-3.489h0.692l1.557 2.386v-2.386h0.694v3.489zM18.002 25.258c-0.146 0.264-0.36 0.474-0.62 0.611l-0.008 0.004c-0.302 0.153-0.638 0.229-0.976 0.219h-1.237v-3.489h1.237c0.016-0.001 0.034-0.001 0.054-0.001 0.336 0 0.654 0.080 0.934 0.222l-0.012-0.006c0.266 0.134 0.485 0.346 0.629 0.609 0.137 0.266 0.218 0.582 0.218 0.915s-0.080 0.649-0.222 0.926l0.006-0.011zM17.207 25.175c0.191-0.222 0.307-0.514 0.307-0.833s-0.116-0.61-0.309-0.834l0.002 0.002c-0.211-0.186-0.49-0.299-0.794-0.299-0.026 0-0.053 0.001-0.078 0.002h-0.479v2.258h0.482c0.022 0.002 0.049 0.002 0.075 0.002 0.305 0 0.583-0.113 0.795-0.3l-0.002 0.001zM9.689 3.2s8.961 3.397 8.771 8.312v8.314s-8.954-3.398-8.767-8.314l-0.004-8.312zM26.442 17.879c1.604-1.122 3.542-1.877 5.639-2.102l0.054-0.005v-2.602c-2.396 0.945-4.35 2.582-5.665 4.662l-0.028 0.048z"></path>
<path d="M25.426 18.663c1.399-2.79 3.754-4.926 6.626-6.010l0.084-0.028v-7.498s-12.762 4.838-12.492 11.838v11.837s0.569-0.216 1.463-0.622c0-0.378 0-0.76 0.040-1.144 0.28-3.365 1.874-6.31 4.262-8.358l0.017-0.014z"></path>
<path d="M24.213 23.060c0.067-0.821 0.216-1.633 0.446-2.424-1.63 1.921-2.642 4.411-2.702 7.137v0.013c1.039-0.5 1.843-0.933 2.629-1.393l-0.174 0.094c-0.153-0.726-0.24-1.562-0.24-2.417 0-0.356 0.015-0.708 0.045-1.056l-0.003 0.046zM24.72 23.102c-0.025 0.287-0.039 0.622-0.039 0.959 0 0.758 0.072 1.499 0.209 2.218l-0.012-0.074c3.486-2.095 7.404-5.331 7.254-9.242v-0.341c-2.597 0.3-4.886 1.43-6.638 3.115l0.004-0.004c-0.401 0.987-0.678 2.131-0.774 3.326l-0.002 0.042z"></path>
</symbol>
<symbol id="icon-client6" viewBox="0 0 32 32">
<path d="M16.063 15.409c-0.13-0.186-0.207-0.416-0.207-0.664 0-0.026 0.001-0.052 0.003-0.077v0.004-1.070c0-0.329 0.068-0.578 0.203-0.748s0.369-0.255 0.7-0.255c0.311 0 0.532 0.073 0.662 0.218 0.142 0.185 0.212 0.412 0.196 0.641v0.251h-0.556v-0.255c0-0.010 0.001-0.021 0.001-0.033 0-0.076-0.006-0.151-0.018-0.225l0.001 0.008c-0.009-0.059-0.038-0.11-0.079-0.148v0c-0.049-0.037-0.111-0.058-0.178-0.058-0.008 0-0.017 0.001-0.025 0.001h0.001c-0.007-0.001-0.015-0.001-0.023-0.001-0.071 0-0.136 0.023-0.189 0.062l0.001-0.001c-0.046 0.042-0.079 0.098-0.092 0.162l-0.001 0.002c-0.016 0.087-0.023 0.176-0.022 0.265v1.3c-0.001 0.015-0.002 0.032-0.002 0.050 0 0.115 0.027 0.223 0.075 0.319l-0.002-0.004c0.028 0.039 0.066 0.069 0.109 0.088l0.002 0.001c0.033 0.014 0.070 0.023 0.11 0.023 0.012 0 0.023-0.001 0.035-0.002h-0.002c0.007 0.001 0.015 0.001 0.023 0.001 0.066 0 0.126-0.023 0.174-0.060l-0.001 0.001c0.043-0.041 0.073-0.095 0.083-0.156v-0.002c0.013-0.086 0.019-0.173 0.018-0.26v-0.264h0.556v0.241c0.002 0.020 0.002 0.043 0.002 0.066 0 0.228-0.073 0.439-0.197 0.611l0.002-0.003c-0.127 0.159-0.345 0.238-0.665 0.238s-0.562-0.085-0.699-0.261zM18.378 15.42c-0.14-0.167-0.211-0.41-0.211-0.731v-1.127c0-0.318 0.070-0.558 0.211-0.722s0.375-0.245 0.704-0.244c0.327 0 0.56 0.082 0.701 0.244 0.14 0.164 0.212 0.404 0.212 0.722v1.127c0 0.318-0.072 0.562-0.214 0.73s-0.375 0.251-0.699 0.251-0.563-0.085-0.704-0.25zM19.341 15.149c0.050-0.104 0.073-0.219 0.067-0.333v-1.379c0.001-0.011 0.001-0.024 0.001-0.037 0-0.105-0.025-0.205-0.069-0.294l0.002 0.004c-0.029-0.039-0.067-0.070-0.111-0.089l-0.002-0.001c-0.032-0.014-0.070-0.022-0.109-0.022-0.013 0-0.026 0.001-0.039 0.003h0.002c-0.011-0.002-0.024-0.003-0.038-0.003-0.040 0-0.077 0.008-0.111 0.023l0.002-0.001c-0.046 0.020-0.085 0.051-0.113 0.089l-0.001 0.001c-0.051 0.102-0.074 0.214-0.067 0.327v1.386c-0.007 0.115 0.016 0.229 0.067 0.333 0.032 0.035 0.071 0.062 0.115 0.082l0.002 0.001c0.042 0.019 0.091 0.029 0.143 0.029s0.101-0.011 0.145-0.030l-0.003 0.001c0.046-0.020 0.085-0.048 0.117-0.083v0-0.007zM20.663 12.629h0.599l0.45 2.079 0.46-2.079h0.582l0.058 3h-0.43l-0.046-2.085-0.444 2.085h-0.345l-0.46-2.092-0.043 2.092h-0.435l0.054-3zM23.484 12.629h0.932c0.537 0 0.805 0.284 0.805 0.852 0 0.544-0.282 0.815-0.848 0.815h-0.317v1.333h-0.575l0.004-3zM24.28 13.911c0.057 0.007 0.115 0.002 0.169-0.014s0.105-0.044 0.148-0.080c0.066-0.102 0.095-0.22 0.083-0.339 0.001-0.010 0.001-0.023 0.001-0.035 0-0.084-0.010-0.166-0.029-0.245l0.002 0.007c-0.009-0.032-0.023-0.059-0.043-0.083l0.001 0.001c-0.020-0.024-0.044-0.045-0.072-0.060l-0.001-0.001c-0.067-0.030-0.144-0.049-0.226-0.049-0.011 0-0.022 0.001-0.032 0.001h-0.222v0.896h0.223zM26.051 12.629h0.618l0.634 3h-0.536l-0.125-0.692h-0.551l-0.129 0.692h-0.545l0.634-3zM26.579 14.589l-0.215-1.259-0.215 1.259h0.431zM27.815 12.629h0.402l0.771 1.711v-1.711h0.477v3h-0.383l-0.776-1.787v1.787h-0.494l0.001-3zM30.585 14.485l-0.641-1.852h0.54l0.391 1.19 0.367-1.19h0.528l-0.633 1.852v1.144h-0.553v-1.144zM16.952 16.94v0.157h-0.47v1.219h-0.197v-1.219h-0.472v-0.157h1.138zM18.424 18.316h-0.152c-0.001 0-0.003 0-0.004 0-0.014 0-0.028-0.005-0.039-0.013v0c-0.011-0.008-0.020-0.019-0.025-0.031v-0.001l-0.136-0.327h-0.651l-0.136 0.327c-0.004 0.014-0.011 0.027-0.021 0.037v0c-0.011 0.008-0.024 0.013-0.039 0.013-0.001 0-0.003 0-0.004 0h-0.152l0.575-1.376h0.2l0.582 1.37zM17.471 17.805h0.543l-0.23-0.56c-0.014-0.035-0.029-0.077-0.041-0.122l-0.002-0.007-0.022 0.073-0.021 0.057-0.228 0.559zM19.416 18.181c0.036 0.002 0.072 0.002 0.108 0 0.031-0.003 0.062-0.009 0.092-0.017 0.033-0.008 0.060-0.017 0.087-0.027l-0.005 0.002c0.025-0.010 0.051-0.022 0.077-0.034v-0.31h-0.23c-0.001 0-0.002 0-0.003 0-0.011 0-0.021-0.004-0.028-0.011v0c-0.007-0.006-0.011-0.014-0.011-0.024 0-0.001 0-0.001 0-0.002v0-0.106h0.446v0.527c-0.070 0.047-0.151 0.086-0.237 0.11l-0.006 0.002c-0.040 0.012-0.089 0.022-0.139 0.028l-0.005 0.001c-0.050 0.006-0.107 0.009-0.166 0.009-0.001 0-0.002 0-0.003 0v0c-0.002 0-0.004 0-0.007 0-0.102 0-0.199-0.019-0.289-0.053l0.006 0.002c-0.089-0.034-0.166-0.083-0.23-0.144l0.001 0.001c-0.062-0.060-0.113-0.133-0.147-0.214l-0.002-0.004c-0.034-0.082-0.053-0.177-0.053-0.276 0-0.003 0-0.006 0-0.009v0.001c0-0.003 0-0.006 0-0.009 0-0.101 0.019-0.196 0.054-0.284l-0.002 0.005c0.033-0.082 0.083-0.155 0.148-0.218s0.144-0.11 0.23-0.143c0.099-0.035 0.203-0.053 0.309-0.051 0.054 0 0.107 0.004 0.16 0.012 0.046 0.007 0.092 0.019 0.137 0.035 0.040 0.014 0.079 0.033 0.115 0.055s0.069 0.045 0.101 0.072l-0.056 0.085c-0.005 0.008-0.011 0.014-0.019 0.019v0c-0.008 0.005-0.017 0.007-0.026 0.007v0c-0.013-0.001-0.026-0.004-0.036-0.011h0.001c-0.023-0.012-0.041-0.022-0.059-0.034l0.003 0.002c-0.022-0.013-0.047-0.026-0.074-0.036l-0.004-0.001c-0.029-0.012-0.065-0.022-0.102-0.030l-0.004-0.001c-0.042-0.008-0.089-0.012-0.138-0.012-0.003 0-0.006 0-0.008 0h0.001c-0.002 0-0.005 0-0.007 0-0.077 0-0.151 0.014-0.219 0.040l0.004-0.002c-0.065 0.024-0.122 0.061-0.169 0.109-0.048 0.050-0.084 0.108-0.107 0.171-0.024 0.068-0.039 0.147-0.039 0.229s0.014 0.161 0.040 0.234l-0.002-0.005c0.025 0.065 0.065 0.124 0.115 0.173 0.047 0.047 0.104 0.084 0.168 0.109 0.073 0.024 0.151 0.033 0.228 0.027zM21.25 18.159h0.628v0.157h-0.821v-1.376h0.197l-0.005 1.219zM22.532 18.316h-0.197v-1.375h0.197v1.376zM23.264 16.947c0.012 0.007 0.022 0.015 0.029 0.025v0l0.841 1.037c-0.001-0.007-0.001-0.016-0.001-0.025s0.001-0.017 0.001-0.026v0.001-1.025h0.171v1.381h-0.099c-0.002 0-0.005 0.001-0.007 0.001-0.013 0-0.025-0.003-0.037-0.008h0.001c-0.012-0.007-0.022-0.016-0.031-0.026v0l-0.84-1.036v1.069h-0.165v-1.375h0.102c0.011 0 0.022 0.002 0.033 0.007zM25.755 16.94v0.152h-0.697v0.454h0.565v0.146h-0.565v0.47h0.697v0.152h-0.9v-1.372h0.9zM5.135 8.443l8.738 2.348v8.23l-8.737-2.347v-8.232zM4.575 7.742v9.332l9.857 2.65v-9.332l-9.857-2.651z"></path>
<path d="M9.858 24.057l-9.858-2.652v-9.332l9.858 2.651v9.333z"></path>
<path d="M4.739 8.338l8.623 2.319-3.667 3.473-8.625-2.32 3.668-3.472zM4.575 7.742l-4.575 4.331 9.858 2.651 4.574-4.331-9.857-2.651zM10.413 23.532l4.020-3.806-4.020-1.082v4.888z"></path>
</symbol>
<symbol id="icon-diagram" viewBox="0 0 32 32">
<path fill="#2196f3" style="fill: var(--color2, #2196f3)" d="M14.926 14.965h1.066v4.798h-1.066v-4.798zM19.19 17.097h1.066v2.665h-1.066v-2.665zM10.661 18.696h1.066v1.066h-1.066v-1.066zM7.463 18.163h1.066v1.599h-1.066v-1.599z"></path>
<path fill="#212121" style="fill: var(--color3, #212121)" d="M1.599 28.291h25.586c0 0 0 0 0 0 0.883 0 1.599-0.716 1.599-1.599v0-2.132c0-0.883-0.716-1.599-1.599-1.599v0h-0.533v-13.294l3.028-2.868c0.207 0.104 0.452 0.166 0.711 0.166 0.888 0 1.608-0.72 1.608-1.608s-0.72-1.608-1.608-1.608c-0.888 0-1.608 0.72-1.608 1.608 0 0.247 0.056 0.481 0.155 0.69l-0.004-0.010-2.281 2.162v-1.23c0-0.883-0.716-1.599-1.599-1.599v0h-21.323c-0.883 0-1.599 0.716-1.599 1.599v0 15.992h-0.533c-0.883 0-1.599 0.716-1.599 1.599v0 2.132c0 0.883 0.716 1.599 1.599 1.599v0zM30.384 4.837c0.294 0 0.533 0.239 0.533 0.533s-0.239 0.533-0.533 0.533v0c-0.294 0-0.533-0.239-0.533-0.533s0.239-0.533 0.533-0.533v0zM3.198 6.969c0-0.294 0.239-0.533 0.533-0.533h21.323c0.294 0 0.533 0.239 0.533 0.533v2.239l-1.066 1.013v-2.185c0-0.295-0.239-0.534-0.534-0.534h-19.189c-0.294 0-0.534 0.239-0.534 0.533v13.327c0 0.294 0.239 0.533 0.534 0.533h19.189c0.295 0 0.534-0.239 0.534-0.533v-9.675l1.066-1.010v12.283h-22.389v-15.991zM7.996 13.899c-0.001 0-0.003 0-0.005 0-0.883 0-1.599 0.716-1.599 1.599s0.716 1.599 1.599 1.599c0.432 0 0.824-0.172 1.112-0.45l-0 0 1.853 0.93c0.215 0.107 0.476 0.057 0.636-0.122l3.939-4.432 3.872 2.902c0.208 0.155 0.498 0.139 0.686-0.039l3.365-3.188v8.131h-18.123v-12.261h18.123v2.661l-3.771 3.572-3.904-2.927c-0.088-0.067-0.2-0.107-0.32-0.107-0.158 0-0.3 0.069-0.398 0.178l-0 0.001-3.993 4.493-1.493-0.746c0.011-0.064 0.017-0.128 0.020-0.193 0-0.883-0.716-1.599-1.599-1.599v0zM8.529 15.498c0 0.294-0.239 0.533-0.533 0.533s-0.533-0.239-0.533-0.533v0c0-0.294 0.239-0.533 0.533-0.533s0.533 0.239 0.533 0.533v0zM11.727 24.026h5.33v0.533c0 0.294-0.238 0.533-0.533 0.533h-4.265c-0.294 0-0.533-0.239-0.533-0.533v0-0.533zM1.067 24.56c0-0.294 0.238-0.533 0.533-0.533h9.062v0.533c0 0.883 0.716 1.599 1.599 1.599v0h4.265c0.883 0 1.599-0.716 1.599-1.599v0-0.533h9.062c0.294 0 0.533 0.239 0.533 0.533v2.132c0 0.294-0.239 0.533-0.533 0.533h-25.586c-0 0-0 0-0 0-0.294 0-0.533-0.239-0.533-0.533 0 0 0 0 0 0v0-2.132z"></path>
</symbol>
<symbol id="icon-envelope" viewBox="0 0 32 32">
<path d="M28.775 4.093h-25.799c-1.641 0-2.977 1.336-2.977 2.977v17.86c0 1.641 1.336 2.977 2.977 2.977h25.799c1.641 0 2.977-1.336 2.977-2.977v-17.86c0-1.641-1.336-2.977-2.977-2.977zM28.775 6.078c0.135 0 0.264 0.028 0.381 0.077l-13.28 11.51-13.28-11.51c0.112-0.048 0.243-0.077 0.381-0.077h25.799zM28.775 25.922h-25.799c-0.548 0-0.992-0.444-0.992-0.992v0-16.679l13.241 11.476c0.173 0.151 0.401 0.243 0.651 0.243s0.478-0.092 0.652-0.244l-0.002 0.001 13.241-11.476v16.679c0 0.548-0.444 0.992-0.992 0.992v0z"></path>
</symbol>
<symbol id="icon-facebook" viewBox="0 0 32 32">
<path d="M21.328 5.312h2.923v-5.088c-1.232-0.143-2.66-0.224-4.108-0.224-0.052 0-0.104 0-0.156 0h0.008c-4.213 0-7.099 2.65-7.099 7.52v4.48h-4.646v5.688h4.646v14.312h5.699v-14.31h4.459l0.707-5.688h-5.168v-3.922c0-1.643 0.443-2.768 2.734-2.768z"></path>
</symbol>
<symbol id="icon-instagram" viewBox="0 0 32 32">
<path d="M31.969 9.408c-0.075-1.7-0.35-2.869-0.744-3.882-0.406-1.075-1.032-2.038-1.851-2.838-0.8-0.813-1.769-1.444-2.832-1.844-1.019-0.394-2.182-0.669-3.882-0.744-1.713-0.081-2.257-0.1-6.601-0.1s-4.888 0.019-6.595 0.094c-1.7 0.075-2.869 0.35-3.882 0.744-1.075 0.406-2.038 1.031-2.838 1.85-0.813 0.8-1.444 1.769-1.844 2.832-0.394 1.019-0.669 2.182-0.744 3.882-0.081 1.713-0.1 2.257-0.1 6.601s0.019 4.888 0.094 6.595c0.075 1.7 0.35 2.869 0.744 3.882 0.406 1.075 1.038 2.038 1.85 2.838 0.8 0.813 1.769 1.444 2.832 1.844 1.019 0.394 2.182 0.669 3.882 0.744 1.706 0.075 2.25 0.094 6.595 0.094s4.888-0.019 6.595-0.094c1.7-0.075 2.869-0.35 3.882-0.744 2.151-0.832 3.851-2.532 4.682-4.682 0.394-1.019 0.669-2.182 0.744-3.882 0.075-1.707 0.094-2.251 0.094-6.595s-0.006-4.888-0.081-6.595zM29.087 22.473c-0.069 1.563-0.331 2.407-0.55 2.969-0.538 1.394-1.644 2.5-3.038 3.038-0.563 0.219-1.413 0.481-2.969 0.55-1.688 0.075-2.194 0.094-6.464 0.094s-4.782-0.019-6.464-0.094c-1.563-0.069-2.407-0.331-2.969-0.55-0.694-0.256-1.325-0.663-1.838-1.194-0.531-0.519-0.938-1.144-1.194-1.838-0.219-0.563-0.481-1.413-0.55-2.969-0.075-1.688-0.094-2.194-0.094-6.464s0.019-4.782 0.094-6.464c0.069-1.563 0.331-2.407 0.55-2.969 0.256-0.694 0.663-1.325 1.2-1.838 0.519-0.531 1.144-0.938 1.838-1.194 0.563-0.219 1.413-0.481 2.969-0.55 1.688-0.075 2.194-0.094 6.464-0.094 4.276 0 4.782 0.019 6.464 0.094 1.563 0.069 2.407 0.331 2.969 0.55 0.694 0.256 1.325 0.662 1.838 1.194 0.531 0.519 0.938 1.144 1.194 1.838 0.219 0.563 0.481 1.413 0.55 2.969 0.075 1.688 0.094 2.194 0.094 6.464s-0.019 4.77-0.094 6.458z"></path>
<path d="M16.059 7.783c-4.538 0-8.22 3.682-8.22 8.22s3.682 8.22 8.22 8.22c4.538 0 8.22-3.682 8.22-8.22s-3.682-8.22-8.22-8.22zM16.059 21.335c-2.944 0-5.332-2.388-5.332-5.332s2.388-5.332 5.332-5.332c2.944 0 5.332 2.388 5.332 5.332s-2.388 5.332-5.332 5.332z"></path>
<path d="M26.524 7.458c0 1.060-0.859 1.919-1.919 1.919s-1.919-0.859-1.919-1.919c0-1.060 0.859-1.919 1.919-1.919s1.919 0.859 1.919 1.919z"></path>
</symbol>
<symbol id="icon-linkedin" viewBox="0 0 32 32">
<path d="M31.992 32h0.008v-11.738c0-5.741-1.237-10.163-7.947-10.163-3.227 0-5.392 1.77-6.277 3.45h-0.093v-2.914h-6.365v21.363h6.627v-10.578c0-2.786 0.528-5.48 3.978-5.48 3.398 0 3.448 3.179 3.448 5.658v10.402h6.621zM0.528 10.635h6.635v21.365h-6.635v-21.365zM3.843 0c-2.123 0-3.843 1.721-3.843 3.843v0c0 2.12 1.722 3.878 3.843 3.878 2.12 0 3.842-1.757 3.842-3.878s-1.72-3.841-3.841-3.843v0z"></path>
</symbol>
<symbol id="icon-smartphone" viewBox="0 0 32 32">
<path d="M23 0h-14c-1.654 0-3 1.346-3 3v26c0 1.654 1.346 3 3 3h14c1.654 0 3-1.346 3-3v-26c0-1.654-1.346-3-3-3zM9 2h14c0.552 0 1 0.448 1 1v0 21h-16v-21c0-0.552 0.448-1 1-1v0zM23 30h-14c-0.552 0-1-0.448-1-1v0-3h16v3c0 0.552-0.448 1-1 1v0z"></path>
<path d="M10.708 27.478c0.18 0.163 0.293 0.399 0.293 0.66s-0.113 0.497-0.292 0.659l-0.001 0.001c-0.186 0.17-0.435 0.275-0.708 0.275s-0.522-0.104-0.709-0.275l0.001 0.001c-0.18-0.163-0.293-0.399-0.293-0.66s0.113-0.497 0.292-0.659l0.001-0.001c0.186-0.17 0.435-0.275 0.708-0.275s0.522 0.104 0.709 0.275l-0.001-0.001z"></path>
</symbol>
<symbol id="icon-twitter" viewBox="0 0 32 32">
<path d="M32 6.078c-1.1 0.493-2.376 0.857-3.713 1.028l-0.068 0.007c1.36-0.817 2.382-2.078 2.873-3.579l0.013-0.046c-1.197 0.722-2.591 1.273-4.076 1.573l-0.084 0.014c-1.2-1.279-2.9-2.076-4.787-2.076-3.622 0-6.558 2.936-6.558 6.558 0 0.001 0 0.003 0 0.004v0c0 0.52 0.043 1.021 0.152 1.496-5.454-0.266-10.28-2.88-13.522-6.861-0.564 0.949-0.899 2.092-0.902 3.313v0.001c0 2.272 1.171 4.286 2.914 5.451-1.091-0.030-2.107-0.325-2.994-0.823l0.033 0.017v0.072c0.003 3.165 2.236 5.807 5.213 6.44l0.043 0.008c-0.499 0.136-1.071 0.215-1.662 0.215-0.020 0-0.041 0-0.061 0h0.003c-0.419 0-0.843-0.024-1.242-0.112 0.85 2.598 3.261 4.509 6.13 4.57-2.215 1.746-5.045 2.8-8.122 2.8-0.004 0-0.008 0-0.013 0h0.001c-0.018 0-0.040 0-0.062 0-0.531 0-1.055-0.034-1.569-0.099l0.061 0.006c2.826 1.846 6.287 2.944 10.004 2.944 0.021 0 0.042 0 0.063 0h-0.003c12.072 0 18.672-10 18.672-18.669 0-0.288-0.010-0.57-0.024-0.848 1.299-0.936 2.39-2.064 3.258-3.355l0.030-0.047z"></path>
</symbol>
</defs>
</svg>
